<svg width="81" height="80" viewBox="0 0 81 80" fill="none" xmlns="http://www.w3.org/2000/svg">
<rect x="0.5" width="80" height="80" rx="40" fill="#FEF0C7"/>
<circle cx="40.5" cy="39.5" r="32.5" fill="#FDB022"/>
<path d="M50.9999 35.9995C50.9999 35.7028 51.0879 35.4128 51.2527 35.1661C51.4176 34.9195 51.6518 34.7272 51.9259 34.6137C52.2 34.5001 52.5016 34.4704 52.7926 34.5283C53.0835 34.5862 53.3508 34.7291 53.5606 34.9388C53.7704 35.1486 53.9132 35.4159 53.9711 35.7069C54.029 35.9978 53.9993 36.2994 53.8858 36.5735C53.7722 36.8476 53.58 37.0819 53.3333 37.2467C53.0866 37.4115 52.7966 37.4995 52.4999 37.4995C52.1021 37.4995 51.7206 37.3415 51.4393 37.0602C51.158 36.7788 50.9999 36.3973 50.9999 35.9995ZM49.4999 32.9995C49.7966 32.9995 50.0866 32.9115 50.3333 32.7467C50.58 32.5819 50.7722 32.3476 50.8858 32.0735C50.9993 31.7994 51.029 31.4978 50.9711 31.2069C50.9132 30.9159 50.7704 30.6486 50.5606 30.4388C50.3508 30.2291 50.0835 30.0862 49.7926 30.0283C49.5016 29.9704 49.2 30.0001 48.9259 30.1137C48.6518 30.2272 48.4176 30.4195 48.2527 30.6661C48.0879 30.9128 47.9999 31.2028 47.9999 31.4995C47.9999 31.8973 48.158 32.2788 48.4393 32.5602C48.7206 32.8415 49.1021 32.9995 49.4999 32.9995ZM53.0824 39.9995C52.8182 39.9777 52.5562 40.0617 52.3539 40.2331C52.1516 40.4044 52.0257 40.6491 52.0037 40.9132C51.8247 43.0038 51.0524 44.9998 49.7775 46.6663C48.5027 48.3328 46.7784 49.6006 44.8075 50.3203C42.8366 51.0401 40.7011 51.182 38.6523 50.7293C36.6035 50.2766 34.7266 49.2482 33.2425 47.765C31.7584 46.2818 30.7287 44.4056 30.2748 42.357C29.8208 40.3085 29.9613 38.173 30.6799 36.2016C31.3984 34.2303 32.6651 32.5051 34.3308 31.2293C35.9965 29.9534 37.992 29.1798 40.0824 28.9995C40.2138 28.9887 40.3417 28.9521 40.4588 28.8918C40.576 28.8315 40.6802 28.7488 40.7654 28.6483C40.8506 28.5477 40.9151 28.4314 40.9554 28.306C40.9956 28.1805 41.0108 28.0483 40.9999 27.917C40.9891 27.7857 40.9525 27.6578 40.8923 27.5406C40.832 27.4234 40.7492 27.3192 40.6487 27.234C40.5482 27.1489 40.4319 27.0843 40.3064 27.044C40.1809 27.0038 40.0488 26.9887 39.9174 26.9995C37.4475 27.2119 35.0896 28.1254 33.1211 29.6324C31.1527 31.1395 29.6556 33.1773 28.806 35.5063C27.9564 37.8352 27.7896 40.3584 28.3253 42.7789C28.861 45.1994 30.0769 47.4166 31.8298 49.1696C33.5828 50.9226 35.8 52.1384 38.2205 52.6741C40.641 53.2098 43.1642 53.0431 45.4932 52.1935C47.8221 51.3439 49.86 49.8468 51.367 47.8783C52.874 45.9099 53.7875 43.552 53.9999 41.082C54.0112 40.9506 53.9964 40.8182 53.9563 40.6926C53.9163 40.5669 53.8517 40.4504 53.7665 40.3498C53.6812 40.2492 53.5768 40.1664 53.4594 40.1063C53.3421 40.0462 53.2139 40.0099 53.0824 39.9995ZM40.9999 30.9995C42.78 30.9995 44.52 31.5273 46.0001 32.5163C47.4801 33.5052 48.6337 34.9108 49.3149 36.5553C49.996 38.1999 50.1743 40.0095 49.827 41.7553C49.4797 43.5011 48.6226 45.1048 47.3639 46.3635C46.1052 47.6221 44.5016 48.4793 42.7558 48.8266C41.0099 49.1738 39.2003 48.9956 37.5558 48.3144C35.9113 47.6332 34.5056 46.4797 33.5167 44.9996C32.5278 43.5196 31.9999 41.7795 31.9999 39.9995C32.0026 37.6134 32.9517 35.3257 34.6389 33.6385C36.3262 31.9512 38.6138 31.0021 40.9999 30.9995ZM39.9999 39.9995C39.9999 40.2647 40.1053 40.5191 40.2928 40.7066C40.4804 40.8941 40.7347 40.9995 40.9999 40.9995H46.9999C47.2652 40.9995 47.5195 40.8941 47.7071 40.7066C47.8946 40.5191 47.9999 40.2647 47.9999 39.9995C47.9999 39.7343 47.8946 39.4799 47.7071 39.2924C47.5195 39.1048 47.2652 38.9995 46.9999 38.9995H41.9999V33.9995C41.9999 33.7343 41.8946 33.4799 41.7071 33.2924C41.5195 33.1048 41.2652 32.9995 40.9999 32.9995C40.7347 32.9995 40.4804 33.1048 40.2928 33.2924C40.1053 33.4799 39.9999 33.7343 39.9999 33.9995V39.9995ZM44.9999 29.9995C45.2966 29.9995 45.5866 29.9115 45.8333 29.7467C46.08 29.5819 46.2722 29.3476 46.3858 29.0735C46.4993 28.7994 46.529 28.4978 46.4711 28.2069C46.4132 27.9159 46.2704 27.6486 46.0606 27.4388C45.8508 27.2291 45.5835 27.0862 45.2926 27.0283C45.0016 26.9704 44.7 27.0001 44.4259 27.1137C44.1518 27.2272 43.9176 27.4195 43.7527 27.6661C43.5879 27.9128 43.4999 28.2028 43.4999 28.4995C43.4999 28.8973 43.658 29.2788 43.9393 29.5602C44.2206 29.8415 44.6021 29.9995 44.9999 29.9995Z" fill="white"/>
</svg>
