<svg width="159" height="124" viewBox="0 0 159 124" fill="none" xmlns="http://www.w3.org/2000/svg">
<g clip-path="url(#clip0_9020_181127)">
<rect width="159" height="124" rx="14" fill="#FEFAEA"/>
<g opacity="0.1">
<path d="M130.924 109.577L115.269 118.615L106.23 102.96L121.886 93.9215L130.924 109.577Z" fill="#62A359"/>
<path d="M140.88 133.966L143.315 111.225C143.729 107.374 139.624 104.553 136.353 106.442L109.839 121.75C106.567 123.638 106.957 128.604 110.5 130.171L131.411 139.432C135.673 141.318 140.385 138.598 140.88 133.966Z" fill="url(#paint0_linear_9020_181127)"/>
<path d="M149.388 109.509L165.044 100.471L174.082 116.126L158.427 125.164L149.388 109.509Z" fill="#62A359"/>
<path d="M139.433 85.1201L136.997 107.861C136.583 111.712 140.689 114.533 143.96 112.644L170.474 97.3362C173.745 95.4475 173.355 90.4818 169.813 88.9145L148.901 79.6535C144.64 77.7674 139.927 80.4884 139.433 85.1201Z" fill="url(#paint1_linear_9020_181127)"/>
</g>
<rect x="12" y="16" width="32" height="32" rx="16" fill="#FFD934"/>
<path d="M27.2733 34.9775C27.3256 35.0297 27.3671 35.0918 27.3954 35.16C27.4237 35.2283 27.4383 35.3015 27.4383 35.3754C27.4383 35.4494 27.4237 35.5226 27.3954 35.5908C27.3671 35.6591 27.3256 35.7212 27.2733 35.7734L25.0233 38.0234C24.971 38.0757 24.909 38.1172 24.8407 38.1455C24.7724 38.1738 24.6992 38.1884 24.6253 38.1884C24.5514 38.1884 24.4782 38.1738 24.4099 38.1455C24.3416 38.1172 24.2796 38.0757 24.2273 38.0234L21.9773 35.7734C21.9251 35.7211 21.8836 35.6591 21.8553 35.5908C21.8271 35.5225 21.8125 35.4494 21.8125 35.3754C21.8125 35.3015 21.8271 35.2283 21.8553 35.1601C21.8836 35.0918 21.9251 35.0297 21.9773 34.9775C22.0829 34.8719 22.226 34.8126 22.3753 34.8126C22.4492 34.8126 22.5224 34.8272 22.5907 34.8555C22.659 34.8838 22.721 34.9252 22.7733 34.9775L24.0628 36.2677V26.3754C24.0628 26.2263 24.1221 26.0832 24.2276 25.9777C24.3331 25.8722 24.4761 25.8129 24.6253 25.8129C24.7745 25.8129 24.9176 25.8722 25.0231 25.9777C25.1285 26.0832 25.1878 26.2263 25.1878 26.3754V36.2677L26.4773 34.9775C26.5296 34.9252 26.5916 34.8837 26.6599 34.8554C26.7282 34.8271 26.8014 34.8125 26.8753 34.8125C26.9492 34.8125 27.0224 34.8271 27.0907 34.8554C27.159 34.8837 27.221 34.9252 27.2733 34.9775ZM34.0233 28.2275L31.7733 25.9775C31.721 25.9252 31.659 25.8837 31.5907 25.8554C31.5224 25.8271 31.4492 25.8125 31.3753 25.8125C31.3014 25.8125 31.2282 25.8271 31.1599 25.8554C31.0916 25.8837 31.0296 25.9252 30.9773 25.9775L28.7273 28.2275C28.6218 28.333 28.5625 28.4762 28.5625 28.6254C28.5625 28.7747 28.6218 28.9179 28.7273 29.0234C28.8329 29.129 28.976 29.1883 29.1253 29.1883C29.2746 29.1883 29.4177 29.129 29.5233 29.0234L30.8128 27.7332V37.6254C30.8128 37.7746 30.8721 37.9177 30.9776 38.0232C31.0831 38.1287 31.2261 38.1879 31.3753 38.1879C31.5245 38.1879 31.6676 38.1287 31.7731 38.0232C31.8786 37.9177 31.9378 37.7746 31.9378 37.6254V27.7332L33.2273 29.0234C33.3329 29.129 33.476 29.1883 33.6253 29.1883C33.7746 29.1883 33.9177 29.129 34.0233 29.0234C34.1288 28.9179 34.1881 28.7747 34.1881 28.6254C34.1881 28.4762 34.1288 28.333 34.0233 28.2275Z" fill="white"/>
<path d="M16.984 71.168C16.2093 71.168 15.5187 71.0047 14.912 70.678C14.3147 70.3513 13.8433 69.9033 13.498 69.334C13.162 68.7647 12.994 68.116 12.994 67.388V60.57H14.646V67.318C14.646 67.7753 14.744 68.1813 14.94 68.536C15.1453 68.8907 15.4207 69.166 15.766 69.362C16.1207 69.558 16.5267 69.656 16.984 69.656C17.4507 69.656 17.8567 69.558 18.202 69.362C18.5567 69.166 18.832 68.8907 19.028 68.536C19.2333 68.1813 19.336 67.7753 19.336 67.318V60.57H20.974V67.388C20.974 68.116 20.806 68.7647 20.47 69.334C20.134 69.9033 19.6627 70.3513 19.056 70.678C18.4587 71.0047 17.768 71.168 16.984 71.168ZM22.8908 73.8V63.426H24.4028V64.994L24.2208 64.63C24.5008 64.2007 24.8741 63.8647 25.3408 63.622C25.8075 63.3793 26.3395 63.258 26.9368 63.258C27.6555 63.258 28.2995 63.4307 28.8688 63.776C29.4475 64.1213 29.9001 64.5927 30.2268 65.19C30.5628 65.7873 30.7308 66.4593 30.7308 67.206C30.7308 67.9527 30.5628 68.6247 30.2268 69.222C29.9001 69.8193 29.4521 70.2953 28.8828 70.65C28.3135 70.9953 27.6648 71.168 26.9368 71.168C26.3488 71.168 25.8121 71.0467 25.3268 70.804C24.8508 70.5613 24.4821 70.2113 24.2208 69.754L24.4728 69.46V73.8H22.8908ZM26.7828 69.698C27.2308 69.698 27.6275 69.5907 27.9728 69.376C28.3181 69.1613 28.5888 68.8673 28.7848 68.494C28.9901 68.1113 29.0928 67.682 29.0928 67.206C29.0928 66.73 28.9901 66.3053 28.7848 65.932C28.5888 65.5587 28.3181 65.2647 27.9728 65.05C27.6275 64.8353 27.2308 64.728 26.7828 64.728C26.3441 64.728 25.9475 64.8353 25.5928 65.05C25.2475 65.2647 24.9721 65.5587 24.7668 65.932C24.5708 66.3053 24.4728 66.73 24.4728 67.206C24.4728 67.682 24.5708 68.1113 24.7668 68.494C24.9721 68.8673 25.2475 69.1613 25.5928 69.376C25.9475 69.5907 26.3441 69.698 26.7828 69.698ZM35.7697 71.168C35.0417 71.168 34.3884 70.9953 33.8097 70.65C33.2404 70.2953 32.7877 69.8193 32.4517 69.222C32.125 68.6247 31.9617 67.9527 31.9617 67.206C31.9617 66.4593 32.1297 65.7873 32.4657 65.19C32.8017 64.5927 33.2544 64.1213 33.8237 63.776C34.393 63.4307 35.037 63.258 35.7557 63.258C36.3624 63.258 36.899 63.3793 37.3657 63.622C37.8324 63.8647 38.201 64.2007 38.4717 64.63L38.2337 64.994V60.402H39.8017V71H38.3037V69.46L38.4857 69.754C38.2244 70.2113 37.851 70.5613 37.3657 70.804C36.8804 71.0467 36.3484 71.168 35.7697 71.168ZM35.9237 69.698C36.3624 69.698 36.7544 69.5907 37.0997 69.376C37.4544 69.1613 37.7297 68.8673 37.9257 68.494C38.131 68.1113 38.2337 67.682 38.2337 67.206C38.2337 66.73 38.131 66.3053 37.9257 65.932C37.7297 65.5587 37.4544 65.2647 37.0997 65.05C36.7544 64.8353 36.3624 64.728 35.9237 64.728C35.485 64.728 35.0884 64.8353 34.7337 65.05C34.379 65.2647 34.1037 65.5587 33.9077 65.932C33.7117 66.3053 33.6137 66.73 33.6137 67.206C33.6137 67.682 33.7117 68.1113 33.9077 68.494C34.1037 68.8673 34.3744 69.1613 34.7197 69.376C35.0744 69.5907 35.4757 69.698 35.9237 69.698ZM43.9166 71.168C43.4033 71.168 42.9506 71.0793 42.5586 70.902C42.1759 70.7153 41.8773 70.4633 41.6626 70.146C41.4479 69.8193 41.3406 69.4367 41.3406 68.998C41.3406 68.5873 41.4293 68.2187 41.6066 67.892C41.7933 67.5653 42.0779 67.29 42.4606 67.066C42.8433 66.842 43.3239 66.6833 43.9026 66.59L46.5346 66.156V67.402L44.2106 67.808C43.7906 67.8827 43.4826 68.018 43.2866 68.214C43.0906 68.4007 42.9926 68.6433 42.9926 68.942C42.9926 69.2313 43.0999 69.4693 43.3146 69.656C43.5386 69.8333 43.8233 69.922 44.1686 69.922C44.5979 69.922 44.9713 69.8287 45.2886 69.642C45.6153 69.4553 45.8673 69.208 46.0446 68.9C46.2219 68.5827 46.3106 68.2327 46.3106 67.85V65.904C46.3106 65.5307 46.1706 65.2273 45.8906 64.994C45.6199 64.7513 45.2559 64.63 44.7986 64.63C44.3786 64.63 44.0099 64.742 43.6926 64.966C43.3846 65.1807 43.1559 65.4607 43.0066 65.806L41.6906 65.148C41.8306 64.7747 42.0593 64.448 42.3766 64.168C42.6939 63.8787 43.0626 63.6547 43.4826 63.496C43.9119 63.3373 44.3646 63.258 44.8406 63.258C45.4379 63.258 45.9653 63.37 46.4226 63.594C46.8893 63.818 47.2486 64.1307 47.5006 64.532C47.7619 64.924 47.8926 65.3813 47.8926 65.904V71H46.3806V69.628L46.7026 69.67C46.5253 69.978 46.2966 70.244 46.0166 70.468C45.7459 70.692 45.4333 70.8647 45.0786 70.986C44.7333 71.1073 44.3459 71.168 43.9166 71.168ZM52.8816 71.084C52.0883 71.084 51.4723 70.86 51.0336 70.412C50.595 69.964 50.3756 69.334 50.3756 68.522V64.854H49.0456V63.426H49.2556C49.6103 63.426 49.8856 63.3233 50.0816 63.118C50.2776 62.9127 50.3756 62.6327 50.3756 62.278V61.69H51.9576V63.426H53.6796V64.854H51.9576V68.452C51.9576 68.7133 51.9996 68.9373 52.0836 69.124C52.1676 69.3013 52.303 69.4413 52.4896 69.544C52.6763 69.6373 52.919 69.684 53.2176 69.684C53.2923 69.684 53.3763 69.6793 53.4696 69.67C53.563 69.6607 53.6516 69.6513 53.7356 69.642V71C53.605 71.0187 53.4603 71.0373 53.3016 71.056C53.143 71.0747 53.003 71.084 52.8816 71.084ZM58.6988 71.168C57.9428 71.168 57.2708 70.9953 56.6828 70.65C56.1041 70.2953 55.6514 69.8193 55.3248 69.222C54.9981 68.6153 54.8348 67.9387 54.8348 67.192C54.8348 66.4267 54.9981 65.75 55.3248 65.162C55.6608 64.574 56.1088 64.112 56.6688 63.776C57.2288 63.4307 57.8634 63.258 58.5728 63.258C59.1421 63.258 59.6508 63.356 60.0988 63.552C60.5468 63.748 60.9248 64.0187 61.2328 64.364C61.5408 64.7 61.7741 65.0873 61.9327 65.526C62.1008 65.9647 62.1848 66.4313 62.1848 66.926C62.1848 67.0473 62.1801 67.1733 62.1708 67.304C62.1614 67.4347 62.1428 67.556 62.1148 67.668H56.0808V66.408H61.2188L60.4628 66.982C60.5561 66.5247 60.5234 66.1187 60.3648 65.764C60.2154 65.4 59.9821 65.1153 59.6648 64.91C59.3568 64.6953 58.9928 64.588 58.5728 64.588C58.1528 64.588 57.7794 64.6953 57.4528 64.91C57.1261 65.1153 56.8741 65.414 56.6968 65.806C56.5194 66.1887 56.4494 66.6553 56.4868 67.206C56.4401 67.7193 56.5101 68.1673 56.6968 68.55C56.8928 68.9327 57.1634 69.2313 57.5088 69.446C57.8634 69.6607 58.2648 69.768 58.7128 69.768C59.1701 69.768 59.5574 69.6653 59.8748 69.46C60.2014 69.2547 60.4581 68.9887 60.6448 68.662L61.9327 69.292C61.7834 69.6467 61.5501 69.9687 61.2328 70.258C60.9248 70.538 60.5514 70.762 60.1128 70.93C59.6834 71.0887 59.2121 71.168 58.6988 71.168ZM66.176 71V63.426H67.688V64.952L67.548 64.728C67.716 64.2333 67.9866 63.8787 68.36 63.664C68.7333 63.44 69.1813 63.328 69.704 63.328H70.166V64.77H69.508C68.9853 64.77 68.5606 64.9333 68.234 65.26C67.9166 65.5773 67.758 66.0347 67.758 66.632V71H66.176ZM73.5162 71.168C73.0029 71.168 72.5502 71.0793 72.1582 70.902C71.7756 70.7153 71.4769 70.4633 71.2622 70.146C71.0476 69.8193 70.9402 69.4367 70.9402 68.998C70.9402 68.5873 71.0289 68.2187 71.2062 67.892C71.3929 67.5653 71.6776 67.29 72.0602 67.066C72.4429 66.842 72.9236 66.6833 73.5022 66.59L76.1342 66.156V67.402L73.8102 67.808C73.3902 67.8827 73.0822 68.018 72.8862 68.214C72.6902 68.4007 72.5922 68.6433 72.5922 68.942C72.5922 69.2313 72.6996 69.4693 72.9142 69.656C73.1382 69.8333 73.4229 69.922 73.7682 69.922C74.1976 69.922 74.5709 69.8287 74.8882 69.642C75.2149 69.4553 75.4669 69.208 75.6442 68.9C75.8216 68.5827 75.9102 68.2327 75.9102 67.85V65.904C75.9102 65.5307 75.7702 65.2273 75.4902 64.994C75.2196 64.7513 74.8556 64.63 74.3982 64.63C73.9782 64.63 73.6096 64.742 73.2922 64.966C72.9842 65.1807 72.7556 65.4607 72.6062 65.806L71.2902 65.148C71.4302 64.7747 71.6589 64.448 71.9762 64.168C72.2936 63.8787 72.6622 63.6547 73.0822 63.496C73.5116 63.3373 73.9642 63.258 74.4402 63.258C75.0376 63.258 75.5649 63.37 76.0222 63.594C76.4889 63.818 76.8482 64.1307 77.1002 64.532C77.3616 64.924 77.4922 65.3813 77.4922 65.904V71H75.9802V69.628L76.3022 69.67C76.1249 69.978 75.8962 70.244 75.6162 70.468C75.3456 70.692 75.0329 70.8647 74.6782 70.986C74.3329 71.1073 73.9456 71.168 73.5162 71.168ZM82.4813 71.084C81.6879 71.084 81.0719 70.86 80.6333 70.412C80.1946 69.964 79.9753 69.334 79.9753 68.522V64.854H78.6453V63.426H78.8553C79.2099 63.426 79.4853 63.3233 79.6813 63.118C79.8773 62.9127 79.9753 62.6327 79.9753 62.278V61.69H81.5573V63.426H83.2793V64.854H81.5573V68.452C81.5573 68.7133 81.5993 68.9373 81.6833 69.124C81.7673 69.3013 81.9026 69.4413 82.0893 69.544C82.2759 69.6373 82.5186 69.684 82.8173 69.684C82.8919 69.684 82.9759 69.6793 83.0693 69.67C83.1626 69.6607 83.2513 69.6513 83.3353 69.642V71C83.2046 71.0187 83.0599 71.0373 82.9013 71.056C82.7426 71.0747 82.6026 71.084 82.4813 71.084ZM88.2984 71.168C87.5424 71.168 86.8704 70.9953 86.2824 70.65C85.7037 70.2953 85.251 69.8193 84.9244 69.222C84.5977 68.6153 84.4344 67.9387 84.4344 67.192C84.4344 66.4267 84.5977 65.75 84.9244 65.162C85.2604 64.574 85.7084 64.112 86.2684 63.776C86.8284 63.4307 87.463 63.258 88.1724 63.258C88.7417 63.258 89.2504 63.356 89.6984 63.552C90.1464 63.748 90.5244 64.0187 90.8324 64.364C91.1404 64.7 91.3737 65.0873 91.5324 65.526C91.7004 65.9647 91.7844 66.4313 91.7844 66.926C91.7844 67.0473 91.7797 67.1733 91.7704 67.304C91.761 67.4347 91.7424 67.556 91.7144 67.668H85.6804V66.408H90.8184L90.0624 66.982C90.1557 66.5247 90.123 66.1187 89.9644 65.764C89.815 65.4 89.5817 65.1153 89.2644 64.91C88.9564 64.6953 88.5924 64.588 88.1724 64.588C87.7524 64.588 87.379 64.6953 87.0524 64.91C86.7257 65.1153 86.4737 65.414 86.2964 65.806C86.119 66.1887 86.049 66.6553 86.0864 67.206C86.0397 67.7193 86.1097 68.1673 86.2964 68.55C86.4924 68.9327 86.763 69.2313 87.1084 69.446C87.463 69.6607 87.8644 69.768 88.3124 69.768C88.7697 69.768 89.157 69.6653 89.4744 69.46C89.801 69.2547 90.0577 68.9887 90.2444 68.662L91.5324 69.292C91.383 69.6467 91.1497 69.9687 90.8324 70.258C90.5244 70.538 90.151 70.762 89.7124 70.93C89.283 71.0887 88.8117 71.168 88.2984 71.168Z" fill="#101828"/>
<path d="M16.39 93.12C15.8633 93.12 15.37 93.0267 14.91 92.84C14.45 92.6467 14.0467 92.3767 13.7 92.03C13.36 91.6833 13.0933 91.2767 12.9 90.81C12.7067 90.3367 12.61 89.8233 12.61 89.27C12.61 88.71 12.7067 88.1967 12.9 87.73C13.0933 87.2633 13.36 86.8567 13.7 86.51C14.0467 86.1633 14.4467 85.8967 14.9 85.71C15.36 85.5233 15.8567 85.43 16.39 85.43C16.9233 85.43 17.4167 85.5267 17.87 85.72C18.33 85.9067 18.73 86.1733 19.07 86.52C19.4167 86.86 19.6867 87.2633 19.88 87.73C20.08 88.1967 20.18 88.71 20.18 89.27C20.18 89.8233 20.08 90.3367 19.88 90.81C19.6867 91.2767 19.4167 91.6833 19.07 92.03C18.73 92.3767 18.33 92.6467 17.87 92.84C17.4167 93.0267 16.9233 93.12 16.39 93.12ZM16.39 92.21C16.8033 92.21 17.18 92.1367 17.52 91.99C17.86 91.8367 18.1533 91.6267 18.4 91.36C18.6533 91.0867 18.8467 90.7733 18.98 90.42C19.12 90.06 19.19 89.6767 19.19 89.27C19.19 88.8633 19.12 88.4833 18.98 88.13C18.8467 87.7767 18.6533 87.4667 18.4 87.2C18.1533 86.9267 17.86 86.7167 17.52 86.57C17.18 86.4167 16.8033 86.34 16.39 86.34C15.9833 86.34 15.61 86.4167 15.27 86.57C14.93 86.7167 14.6333 86.9267 14.38 87.2C14.1333 87.4667 13.94 87.7767 13.8 88.13C13.66 88.4833 13.59 88.8633 13.59 89.27C13.59 89.6767 13.66 90.06 13.8 90.42C13.94 90.7733 14.1333 91.0867 14.38 91.36C14.6333 91.6267 14.93 91.8367 15.27 91.99C15.61 92.1367 15.9833 92.21 16.39 92.21ZM18.4 93.9L15.86 90.02H16.94L19.49 93.9H18.4ZM23.3093 93.12C22.9226 93.12 22.5726 93.03 22.2593 92.85C21.9526 92.67 21.7126 92.42 21.5393 92.1C21.3726 91.7733 21.2893 91.4 21.2893 90.98V87.61H22.2193V90.88C22.2193 91.1467 22.2726 91.38 22.3793 91.58C22.4926 91.78 22.646 91.9367 22.8393 92.05C23.0393 92.1633 23.266 92.22 23.5193 92.22C23.7726 92.22 23.996 92.1633 24.1893 92.05C24.3893 91.9367 24.5426 91.7733 24.6493 91.56C24.7626 91.3467 24.8193 91.0933 24.8193 90.8V87.61H25.7593V93H24.8493V91.95L24.9993 92.04C24.8726 92.38 24.656 92.6467 24.3493 92.84C24.0493 93.0267 23.7026 93.12 23.3093 93.12ZM27.1001 93V87.61H28.0301V93H27.1001ZM27.1001 86.75V85.55H28.0301V86.75H27.1001ZM31.8731 93.12C31.3465 93.12 30.8765 92.9967 30.4631 92.75C30.0565 92.5033 29.7365 92.1667 29.5031 91.74C29.2698 91.3133 29.1531 90.8333 29.1531 90.3C29.1531 89.76 29.2698 89.28 29.5031 88.86C29.7365 88.44 30.0565 88.1067 30.4631 87.86C30.8765 87.6133 31.3465 87.49 31.8731 87.49C32.2265 87.49 32.5565 87.5533 32.8631 87.68C33.1698 87.8067 33.4398 87.9767 33.6731 88.19C33.9065 88.4033 34.0765 88.6533 34.1831 88.94L33.3531 89.34C33.2265 89.06 33.0331 88.8333 32.7731 88.66C32.5131 88.48 32.2131 88.39 31.8731 88.39C31.5465 88.39 31.2498 88.4733 30.9831 88.64C30.7231 88.8067 30.5165 89.0333 30.3631 89.32C30.2098 89.6067 30.1331 89.9367 30.1331 90.31C30.1331 90.67 30.2098 90.9967 30.3631 91.29C30.5165 91.5767 30.7231 91.8033 30.9831 91.97C31.2498 92.1367 31.5465 92.22 31.8731 92.22C32.2131 92.22 32.5131 92.1333 32.7731 91.96C33.0331 91.78 33.2265 91.5433 33.3531 91.25L34.1831 91.67C34.0765 91.95 33.9065 92.2 33.6731 92.42C33.4398 92.6333 33.1698 92.8033 32.8631 92.93C32.5565 93.0567 32.2265 93.12 31.8731 93.12ZM35.2985 93V85.43H36.2285V90.62L35.8485 90.53L38.7085 87.61H39.8985L37.8285 89.78L40.0385 93H38.9385L36.9185 90.08L37.4985 90.05L35.9285 91.69L36.2285 91.01V93H35.2985ZM40.7747 93V85.43H41.7047V93H40.7747ZM43.3377 95.2C43.2177 95.2 43.0977 95.19 42.9777 95.17C42.8577 95.15 42.7444 95.1167 42.6377 95.07V94.24C42.7111 94.2533 42.8011 94.2667 42.9077 94.28C43.0211 94.3 43.1311 94.31 43.2377 94.31C43.5511 94.31 43.7877 94.24 43.9477 94.1C44.1144 93.9667 44.2711 93.7333 44.4177 93.4L44.7577 92.59L44.7377 93.4L42.4377 87.61H43.4477L45.2377 92.21H44.9377L46.7177 87.61H47.7477L45.3177 93.64C45.2044 93.9267 45.0577 94.1867 44.8777 94.42C44.7044 94.66 44.4911 94.85 44.2377 94.99C43.9844 95.13 43.6844 95.2 43.3377 95.2ZM52.0136 93.12C51.6269 93.12 51.2769 93.03 50.9636 92.85C50.6569 92.67 50.4169 92.42 50.2436 92.1C50.0769 91.7733 49.9936 91.4 49.9936 90.98V87.61H50.9236V90.88C50.9236 91.1467 50.9769 91.38 51.0836 91.58C51.1969 91.78 51.3503 91.9367 51.5436 92.05C51.7436 92.1633 51.9703 92.22 52.2236 92.22C52.4769 92.22 52.7003 92.1633 52.8936 92.05C53.0936 91.9367 53.2469 91.7733 53.3536 91.56C53.4669 91.3467 53.5236 91.0933 53.5236 90.8V87.61H54.4636V93H53.5536V91.95L53.7036 92.04C53.5769 92.38 53.3603 92.6467 53.0536 92.84C52.7536 93.0267 52.4069 93.12 52.0136 93.12ZM55.8044 95V87.61H56.7144V88.77L56.5944 88.54C56.7944 88.22 57.0677 87.9667 57.4144 87.78C57.761 87.5867 58.1577 87.49 58.6044 87.49C59.111 87.49 59.5644 87.6133 59.9644 87.86C60.371 88.1067 60.691 88.4433 60.9244 88.87C61.1577 89.29 61.2744 89.77 61.2744 90.31C61.2744 90.8367 61.1577 91.3133 60.9244 91.74C60.691 92.1667 60.371 92.5033 59.9644 92.75C59.5644 92.9967 59.1077 93.12 58.5944 93.12C58.161 93.12 57.7644 93.0233 57.4044 92.83C57.051 92.6367 56.7777 92.3633 56.5844 92.01L56.7344 91.85V95H55.8044ZM58.5244 92.22C58.8644 92.22 59.1677 92.1367 59.4344 91.97C59.701 91.8033 59.9077 91.5767 60.0544 91.29C60.2077 90.9967 60.2844 90.67 60.2844 90.31C60.2844 89.9367 60.2077 89.61 60.0544 89.33C59.9077 89.0433 59.701 88.8167 59.4344 88.65C59.1677 88.4767 58.8644 88.39 58.5244 88.39C58.1844 88.39 57.8777 88.4733 57.6044 88.64C57.3377 88.8067 57.1244 89.0367 56.9644 89.33C56.811 89.6167 56.7344 89.9433 56.7344 90.31C56.7344 90.67 56.811 90.9967 56.9644 91.29C57.1244 91.5767 57.3377 91.8033 57.6044 91.97C57.8777 92.1367 58.1844 92.22 58.5244 92.22ZM64.8438 93.12C64.3372 93.12 63.8805 92.9967 63.4738 92.75C63.0738 92.5033 62.7572 92.1667 62.5238 91.74C62.2905 91.3133 62.1738 90.8367 62.1738 90.31C62.1738 89.77 62.2905 89.29 62.5238 88.87C62.7572 88.4433 63.0738 88.1067 63.4738 87.86C63.8805 87.6133 64.3372 87.49 64.8438 87.49C65.2905 87.49 65.6872 87.5867 66.0338 87.78C66.3805 87.9667 66.6538 88.22 66.8538 88.54L66.7038 88.77V85.43H67.6438V93H66.7338V91.85L66.8538 92.01C66.6672 92.3633 66.3938 92.6367 66.0338 92.83C65.6805 93.0233 65.2838 93.12 64.8438 93.12ZM64.9238 92.22C65.2638 92.22 65.5672 92.1367 65.8338 91.97C66.1005 91.8033 66.3105 91.5767 66.4638 91.29C66.6238 90.9967 66.7038 90.67 66.7038 90.31C66.7038 89.9433 66.6238 89.6167 66.4638 89.33C66.3105 89.0367 66.1005 88.8067 65.8338 88.64C65.5672 88.4733 65.2638 88.39 64.9238 88.39C64.5905 88.39 64.2872 88.4767 64.0138 88.65C63.7472 88.8167 63.5372 89.0433 63.3838 89.33C63.2305 89.61 63.1538 89.9367 63.1538 90.31C63.1538 90.67 63.2305 90.9967 63.3838 91.29C63.5372 91.5767 63.7472 91.8033 64.0138 91.97C64.2805 92.1367 64.5838 92.22 64.9238 92.22ZM70.5633 93.12C70.2099 93.12 69.8966 93.0567 69.6233 92.93C69.3566 92.7967 69.1466 92.6167 68.9933 92.39C68.8399 92.1567 68.7633 91.89 68.7633 91.59C68.7633 91.3033 68.8233 91.0467 68.9433 90.82C69.0699 90.5867 69.2633 90.39 69.5233 90.23C69.7899 90.07 70.1233 89.9567 70.5233 89.89L72.5233 89.56V90.34L70.7333 90.64C70.3866 90.7 70.1333 90.81 69.9733 90.97C69.8199 91.13 69.7433 91.3267 69.7433 91.56C69.7433 91.78 69.8299 91.9633 70.0033 92.11C70.1833 92.2567 70.4066 92.33 70.6733 92.33C71.0133 92.33 71.3066 92.26 71.5533 92.12C71.8066 91.9733 72.0033 91.7767 72.1433 91.53C72.2899 91.2833 72.3633 91.01 72.3633 90.71V89.34C72.3633 89.0467 72.2533 88.81 72.0333 88.63C71.8199 88.4433 71.5366 88.35 71.1833 88.35C70.8766 88.35 70.6033 88.43 70.3633 88.59C70.1299 88.7433 69.9566 88.95 69.8433 89.21L69.0333 88.79C69.1333 88.5433 69.2933 88.3233 69.5133 88.13C69.7333 87.93 69.9899 87.7733 70.2833 87.66C70.5766 87.5467 70.8833 87.49 71.2033 87.49C71.6166 87.49 71.9799 87.57 72.2933 87.73C72.6066 87.8833 72.8499 88.1 73.0233 88.38C73.2033 88.6533 73.2933 88.9733 73.2933 89.34V93H72.3833V91.98L72.5533 92.04C72.4399 92.2533 72.2866 92.44 72.0933 92.6C71.8999 92.76 71.6733 92.8867 71.4133 92.98C71.1533 93.0733 70.8699 93.12 70.5633 93.12ZM76.7276 93.06C76.2009 93.06 75.7942 92.91 75.5076 92.61C75.2276 92.31 75.0876 91.8867 75.0876 91.34V88.5H74.1076V87.61H74.3076C74.5476 87.61 74.7376 87.5367 74.8776 87.39C75.0176 87.2433 75.0876 87.05 75.0876 86.81V86.37H76.0176V87.61H77.2276V88.5H76.0176V91.31C76.0176 91.49 76.0442 91.6467 76.0976 91.78C76.1576 91.9133 76.2542 92.02 76.3876 92.1C76.5209 92.1733 76.6976 92.21 76.9176 92.21C76.9642 92.21 77.0209 92.2067 77.0876 92.2C77.1609 92.1933 77.2276 92.1867 77.2876 92.18V93C77.2009 93.02 77.1042 93.0333 76.9976 93.04C76.8909 93.0533 76.8009 93.06 76.7276 93.06ZM80.7359 93.12C80.2159 93.12 79.7526 92.9967 79.3459 92.75C78.9393 92.5033 78.6193 92.1667 78.3859 91.74C78.1526 91.3067 78.0359 90.8233 78.0359 90.29C78.0359 89.75 78.1493 89.27 78.3759 88.85C78.6093 88.43 78.9226 88.1 79.3159 87.86C79.7159 87.6133 80.1626 87.49 80.6559 87.49C81.0559 87.49 81.4093 87.5633 81.7159 87.71C82.0293 87.85 82.2926 88.0433 82.5059 88.29C82.7259 88.53 82.8926 88.8067 83.0059 89.12C83.1259 89.4267 83.1859 89.7467 83.1859 90.08C83.1859 90.1533 83.1793 90.2367 83.1659 90.33C83.1593 90.4167 83.1493 90.5 83.1359 90.58H78.7159V89.78H82.5959L82.1559 90.14C82.2159 89.7933 82.1826 89.4833 82.0559 89.21C81.9293 88.9367 81.7426 88.72 81.4959 88.56C81.2493 88.4 80.9693 88.32 80.6559 88.32C80.3426 88.32 80.0559 88.4 79.7959 88.56C79.5359 88.72 79.3326 88.95 79.1859 89.25C79.0459 89.5433 78.9893 89.8933 79.0159 90.3C78.9893 90.6933 79.0493 91.04 79.1959 91.34C79.3493 91.6333 79.5626 91.8633 79.8359 92.03C80.1159 92.19 80.4193 92.27 80.7459 92.27C81.1059 92.27 81.4093 92.1867 81.6559 92.02C81.9026 91.8533 82.1026 91.64 82.2559 91.38L83.0359 91.78C82.9293 92.0267 82.7626 92.2533 82.5359 92.46C82.3159 92.66 82.0526 92.82 81.7459 92.94C81.4459 93.06 81.1093 93.12 80.7359 93.12ZM85.927 93V87.61H86.837V88.6L86.737 88.46C86.8637 88.1533 87.057 87.9267 87.317 87.78C87.577 87.6267 87.8937 87.55 88.267 87.55H88.597V88.43H88.127C87.747 88.43 87.4404 88.55 87.207 88.79C86.9737 89.0233 86.857 89.3567 86.857 89.79V93H85.927ZM90.9031 93.12C90.5498 93.12 90.2365 93.0567 89.9631 92.93C89.6965 92.7967 89.4865 92.6167 89.3331 92.39C89.1798 92.1567 89.1031 91.89 89.1031 91.59C89.1031 91.3033 89.1631 91.0467 89.2831 90.82C89.4098 90.5867 89.6031 90.39 89.8631 90.23C90.1298 90.07 90.4631 89.9567 90.8631 89.89L92.8631 89.56V90.34L91.0731 90.64C90.7265 90.7 90.4731 90.81 90.3131 90.97C90.1598 91.13 90.0831 91.3267 90.0831 91.56C90.0831 91.78 90.1698 91.9633 90.3431 92.11C90.5231 92.2567 90.7465 92.33 91.0131 92.33C91.3531 92.33 91.6465 92.26 91.8931 92.12C92.1465 91.9733 92.3431 91.7767 92.4831 91.53C92.6298 91.2833 92.7031 91.01 92.7031 90.71V89.34C92.7031 89.0467 92.5931 88.81 92.3731 88.63C92.1598 88.4433 91.8765 88.35 91.5231 88.35C91.2165 88.35 90.9431 88.43 90.7031 88.59C90.4698 88.7433 90.2965 88.95 90.1831 89.21L89.3731 88.79C89.4731 88.5433 89.6331 88.3233 89.8531 88.13C90.0731 87.93 90.3298 87.7733 90.6231 87.66C90.9165 87.5467 91.2231 87.49 91.5431 87.49C91.9565 87.49 92.3198 87.57 92.6331 87.73C92.9465 87.8833 93.1898 88.1 93.3631 88.38C93.5431 88.6533 93.6331 88.9733 93.6331 89.34V93H92.7231V91.98L92.8931 92.04C92.7798 92.2533 92.6265 92.44 92.4331 92.6C92.2398 92.76 92.0131 92.8867 91.7531 92.98C91.4931 93.0733 91.2098 93.12 90.9031 93.12ZM97.0674 93.06C96.5408 93.06 96.1341 92.91 95.8474 92.61C95.5674 92.31 95.4274 91.8867 95.4274 91.34V88.5H94.4474V87.61H94.6474C94.8874 87.61 95.0774 87.5367 95.2174 87.39C95.3574 87.2433 95.4274 87.05 95.4274 86.81V86.37H96.3574V87.61H97.5674V88.5H96.3574V91.31C96.3574 91.49 96.3841 91.6467 96.4374 91.78C96.4974 91.9133 96.5941 92.02 96.7274 92.1C96.8608 92.1733 97.0374 92.21 97.2574 92.21C97.3041 92.21 97.3608 92.2067 97.4274 92.2C97.5008 92.1933 97.5674 92.1867 97.6274 92.18V93C97.5408 93.02 97.4441 93.0333 97.3374 93.04C97.2308 93.0533 97.1408 93.06 97.0674 93.06ZM101.076 93.12C100.556 93.12 100.092 92.9967 99.6858 92.75C99.2791 92.5033 98.9591 92.1667 98.7258 91.74C98.4924 91.3067 98.3758 90.8233 98.3758 90.29C98.3758 89.75 98.4891 89.27 98.7158 88.85C98.9491 88.43 99.2624 88.1 99.6558 87.86C100.056 87.6133 100.502 87.49 100.996 87.49C101.396 87.49 101.749 87.5633 102.056 87.71C102.369 87.85 102.632 88.0433 102.846 88.29C103.066 88.53 103.232 88.8067 103.346 89.12C103.466 89.4267 103.526 89.7467 103.526 90.08C103.526 90.1533 103.519 90.2367 103.506 90.33C103.499 90.4167 103.489 90.5 103.476 90.58H99.0558V89.78H102.936L102.496 90.14C102.556 89.7933 102.522 89.4833 102.396 89.21C102.269 88.9367 102.082 88.72 101.836 88.56C101.589 88.4 101.309 88.32 100.996 88.32C100.682 88.32 100.396 88.4 100.136 88.56C99.8758 88.72 99.6724 88.95 99.5258 89.25C99.3858 89.5433 99.3291 89.8933 99.3558 90.3C99.3291 90.6933 99.3891 91.04 99.5358 91.34C99.6891 91.6333 99.9024 91.8633 100.176 92.03C100.456 92.19 100.759 92.27 101.086 92.27C101.446 92.27 101.749 92.1867 101.996 92.02C102.242 91.8533 102.442 91.64 102.596 91.38L103.376 91.78C103.269 92.0267 103.102 92.2533 102.876 92.46C102.656 92.66 102.392 92.82 102.086 92.94C101.786 93.06 101.449 93.12 101.076 93.12ZM106.568 93.12C106.028 93.12 105.558 92.9867 105.158 92.72C104.758 92.4533 104.475 92.0933 104.308 91.64L105.048 91.28C105.202 91.6 105.412 91.8533 105.678 92.04C105.945 92.2267 106.242 92.32 106.568 92.32C106.862 92.32 107.105 92.25 107.298 92.11C107.492 91.97 107.588 91.7867 107.588 91.56C107.588 91.4 107.542 91.2733 107.448 91.18C107.362 91.08 107.255 91.0033 107.128 90.95C107.002 90.89 106.885 90.8467 106.778 90.82L105.968 90.59C105.482 90.45 105.125 90.25 104.898 89.99C104.678 89.73 104.568 89.4267 104.568 89.08C104.568 88.76 104.648 88.4833 104.808 88.25C104.975 88.01 105.198 87.8233 105.478 87.69C105.765 87.5567 106.085 87.49 106.438 87.49C106.912 87.49 107.335 87.61 107.708 87.85C108.088 88.09 108.358 88.4267 108.518 88.86L107.758 89.21C107.638 88.93 107.458 88.71 107.218 88.55C106.978 88.3833 106.708 88.3 106.408 88.3C106.135 88.3 105.918 88.37 105.758 88.51C105.598 88.6433 105.518 88.8133 105.518 89.02C105.518 89.1733 105.558 89.3 105.638 89.4C105.718 89.4933 105.815 89.5667 105.928 89.62C106.042 89.6667 106.152 89.7067 106.258 89.74L107.138 90C107.578 90.1267 107.918 90.3233 108.158 90.59C108.405 90.8567 108.528 91.1767 108.528 91.55C108.528 91.85 108.445 92.12 108.278 92.36C108.112 92.6 107.882 92.7867 107.588 92.92C107.295 93.0533 106.955 93.12 106.568 93.12ZM111.844 93V88.5H110.814V87.61H111.844V87.23C111.844 86.8433 111.928 86.5167 112.094 86.25C112.268 85.9833 112.494 85.78 112.774 85.64C113.061 85.5 113.378 85.43 113.724 85.43C113.798 85.43 113.878 85.4367 113.964 85.45C114.058 85.4567 114.134 85.4667 114.194 85.48V86.31C114.141 86.2967 114.078 86.29 114.004 86.29C113.931 86.2833 113.874 86.28 113.834 86.28C113.528 86.28 113.274 86.3533 113.074 86.5C112.881 86.6467 112.784 86.89 112.784 87.23V87.61H114.064V88.5H112.784V93H111.844ZM117.455 93.12C116.935 93.12 116.465 93 116.045 92.76C115.625 92.5133 115.292 92.1767 115.045 91.75C114.798 91.3233 114.675 90.84 114.675 90.3C114.675 89.76 114.795 89.28 115.035 88.86C115.282 88.44 115.615 88.1067 116.035 87.86C116.455 87.6133 116.928 87.49 117.455 87.49C117.975 87.49 118.445 87.6133 118.865 87.86C119.285 88.1 119.615 88.43 119.855 88.85C120.102 89.27 120.225 89.7533 120.225 90.3C120.225 90.8467 120.098 91.3333 119.845 91.76C119.592 92.18 119.255 92.5133 118.835 92.76C118.422 93 117.962 93.12 117.455 93.12ZM117.455 92.22C117.788 92.22 118.088 92.1367 118.355 91.97C118.628 91.8033 118.842 91.5733 118.995 91.28C119.155 90.9867 119.235 90.66 119.235 90.3C119.235 89.9333 119.155 89.61 118.995 89.33C118.842 89.0433 118.628 88.8167 118.355 88.65C118.088 88.4767 117.788 88.39 117.455 88.39C117.115 88.39 116.808 88.4767 116.535 88.65C116.268 88.8167 116.055 89.0433 115.895 89.33C115.735 89.61 115.655 89.9333 115.655 90.3C115.655 90.66 115.735 90.9867 115.895 91.28C116.055 91.5733 116.268 91.8033 116.535 91.97C116.808 92.1367 117.115 92.22 117.455 92.22ZM121.338 93V87.61H122.248V88.6L122.148 88.46C122.275 88.1533 122.468 87.9267 122.728 87.78C122.988 87.6267 123.305 87.55 123.678 87.55H124.008V88.43H123.538C123.158 88.43 122.851 88.55 122.618 88.79C122.385 89.0233 122.268 89.3567 122.268 89.79V93H121.338ZM13.01 108.2C12.89 108.2 12.77 108.19 12.65 108.17C12.53 108.15 12.4167 108.117 12.31 108.07V107.24C12.3833 107.253 12.4733 107.267 12.58 107.28C12.6933 107.3 12.8033 107.31 12.91 107.31C13.2233 107.31 13.46 107.24 13.62 107.1C13.7867 106.967 13.9433 106.733 14.09 106.4L14.43 105.59L14.41 106.4L12.11 100.61H13.12L14.91 105.21H14.61L16.39 100.61H17.42L14.99 106.64C14.8767 106.927 14.73 107.187 14.55 107.42C14.3767 107.66 14.1633 107.85 13.91 107.99C13.6567 108.13 13.3567 108.2 13.01 108.2ZM20.6097 106.12C20.0897 106.12 19.6197 106 19.1997 105.76C18.7797 105.513 18.4464 105.177 18.1997 104.75C17.953 104.323 17.8297 103.84 17.8297 103.3C17.8297 102.76 17.9497 102.28 18.1897 101.86C18.4364 101.44 18.7697 101.107 19.1897 100.86C19.6097 100.613 20.083 100.49 20.6097 100.49C21.1297 100.49 21.5997 100.613 22.0197 100.86C22.4397 101.1 22.7697 101.43 23.0097 101.85C23.2564 102.27 23.3797 102.753 23.3797 103.3C23.3797 103.847 23.253 104.333 22.9997 104.76C22.7464 105.18 22.4097 105.513 21.9897 105.76C21.5764 106 21.1164 106.12 20.6097 106.12ZM20.6097 105.22C20.943 105.22 21.243 105.137 21.5097 104.97C21.783 104.803 21.9964 104.573 22.1497 104.28C22.3097 103.987 22.3897 103.66 22.3897 103.3C22.3897 102.933 22.3097 102.61 22.1497 102.33C21.9964 102.043 21.783 101.817 21.5097 101.65C21.243 101.477 20.943 101.39 20.6097 101.39C20.2697 101.39 19.963 101.477 19.6897 101.65C19.423 101.817 19.2097 102.043 19.0497 102.33C18.8897 102.61 18.8097 102.933 18.8097 103.3C18.8097 103.66 18.8897 103.987 19.0497 104.28C19.2097 104.573 19.423 104.803 19.6897 104.97C19.963 105.137 20.2697 105.22 20.6097 105.22ZM26.4027 106.12C26.016 106.12 25.666 106.03 25.3527 105.85C25.046 105.67 24.806 105.42 24.6327 105.1C24.466 104.773 24.3827 104.4 24.3827 103.98V100.61H25.3127V103.88C25.3127 104.147 25.366 104.38 25.4727 104.58C25.586 104.78 25.7393 104.937 25.9327 105.05C26.1327 105.163 26.3593 105.22 26.6127 105.22C26.866 105.22 27.0893 105.163 27.2827 105.05C27.4827 104.937 27.636 104.773 27.7427 104.56C27.856 104.347 27.9127 104.093 27.9127 103.8V100.61H28.8527V106H27.9427V104.95L28.0927 105.04C27.966 105.38 27.7493 105.647 27.4427 105.84C27.1427 106.027 26.796 106.12 26.4027 106.12ZM30.1934 106V100.61H31.1034V101.6L31.0034 101.46C31.1301 101.153 31.3234 100.927 31.5834 100.78C31.8434 100.627 32.1601 100.55 32.5334 100.55H32.8634V101.43H32.3934C32.0134 101.43 31.7068 101.55 31.4734 101.79C31.2401 102.023 31.1234 102.357 31.1234 102.79V106H30.1934ZM37.128 106.12C36.7414 106.12 36.3914 106.03 36.078 105.85C35.7714 105.67 35.5314 105.42 35.358 105.1C35.1914 104.773 35.108 104.4 35.108 103.98V100.61H36.038V103.88C36.038 104.147 36.0914 104.38 36.198 104.58C36.3114 104.78 36.4647 104.937 36.658 105.05C36.858 105.163 37.0847 105.22 37.338 105.22C37.5914 105.22 37.8147 105.163 38.008 105.05C38.208 104.937 38.3614 104.773 38.468 104.56C38.5814 104.347 38.638 104.093 38.638 103.8V100.61H39.578V106H38.668V104.95L38.818 105.04C38.6914 105.38 38.4747 105.647 38.168 105.84C37.868 106.027 37.5214 106.12 37.128 106.12ZM42.8488 106.12C42.3088 106.12 41.8388 105.987 41.4388 105.72C41.0388 105.453 40.7555 105.093 40.5888 104.64L41.3288 104.28C41.4822 104.6 41.6922 104.853 41.9588 105.04C42.2255 105.227 42.5222 105.32 42.8488 105.32C43.1422 105.32 43.3855 105.25 43.5788 105.11C43.7722 104.97 43.8688 104.787 43.8688 104.56C43.8688 104.4 43.8222 104.273 43.7288 104.18C43.6422 104.08 43.5355 104.003 43.4088 103.95C43.2822 103.89 43.1655 103.847 43.0588 103.82L42.2488 103.59C41.7622 103.45 41.4055 103.25 41.1788 102.99C40.9588 102.73 40.8488 102.427 40.8488 102.08C40.8488 101.76 40.9288 101.483 41.0888 101.25C41.2555 101.01 41.4788 100.823 41.7588 100.69C42.0455 100.557 42.3655 100.49 42.7188 100.49C43.1922 100.49 43.6155 100.61 43.9888 100.85C44.3688 101.09 44.6388 101.427 44.7988 101.86L44.0388 102.21C43.9188 101.93 43.7388 101.71 43.4988 101.55C43.2588 101.383 42.9888 101.3 42.6888 101.3C42.4155 101.3 42.1988 101.37 42.0388 101.51C41.8788 101.643 41.7988 101.813 41.7988 102.02C41.7988 102.173 41.8388 102.3 41.9188 102.4C41.9988 102.493 42.0955 102.567 42.2088 102.62C42.3222 102.667 42.4322 102.707 42.5388 102.74L43.4188 103C43.8588 103.127 44.1988 103.323 44.4388 103.59C44.6855 103.857 44.8088 104.177 44.8088 104.55C44.8088 104.85 44.7255 105.12 44.5588 105.36C44.3922 105.6 44.1622 105.787 43.8688 105.92C43.5755 106.053 43.2355 106.12 42.8488 106.12ZM48.1162 106.06C47.5896 106.06 47.1829 105.91 46.8962 105.61C46.6162 105.31 46.4762 104.887 46.4762 104.34V101.5H45.4962V100.61H45.6962C45.9362 100.61 46.1262 100.537 46.2662 100.39C46.4062 100.243 46.4762 100.05 46.4762 99.81V99.37H47.4062V100.61H48.6162V101.5H47.4062V104.31C47.4062 104.49 47.4329 104.647 47.4862 104.78C47.5462 104.913 47.6429 105.02 47.7762 105.1C47.9096 105.173 48.0862 105.21 48.3062 105.21C48.3529 105.21 48.4096 105.207 48.4762 105.2C48.5496 105.193 48.6162 105.187 48.6762 105.18V106C48.5896 106.02 48.4929 106.033 48.3862 106.04C48.2796 106.053 48.1896 106.06 48.1162 106.06ZM52.2046 106.12C51.6846 106.12 51.2146 106 50.7946 105.76C50.3746 105.513 50.0413 105.177 49.7946 104.75C49.5479 104.323 49.4246 103.84 49.4246 103.3C49.4246 102.76 49.5446 102.28 49.7846 101.86C50.0313 101.44 50.3646 101.107 50.7846 100.86C51.2046 100.613 51.6779 100.49 52.2046 100.49C52.7246 100.49 53.1946 100.613 53.6146 100.86C54.0346 101.1 54.3646 101.43 54.6046 101.85C54.8513 102.27 54.9746 102.753 54.9746 103.3C54.9746 103.847 54.8479 104.333 54.5946 104.76C54.3413 105.18 54.0046 105.513 53.5846 105.76C53.1713 106 52.7113 106.12 52.2046 106.12ZM52.2046 105.22C52.5379 105.22 52.8379 105.137 53.1046 104.97C53.3779 104.803 53.5913 104.573 53.7446 104.28C53.9046 103.987 53.9846 103.66 53.9846 103.3C53.9846 102.933 53.9046 102.61 53.7446 102.33C53.5913 102.043 53.3779 101.817 53.1046 101.65C52.8379 101.477 52.5379 101.39 52.2046 101.39C51.8646 101.39 51.5579 101.477 51.2846 101.65C51.0179 101.817 50.8046 102.043 50.6446 102.33C50.4846 102.61 50.4046 102.933 50.4046 103.3C50.4046 103.66 50.4846 103.987 50.6446 104.28C50.8046 104.573 51.0179 104.803 51.2846 104.97C51.5579 105.137 51.8646 105.22 52.2046 105.22ZM56.0876 106V100.61H56.9976V101.71L56.8676 101.54C57.0009 101.2 57.2142 100.94 57.5076 100.76C57.8009 100.58 58.1309 100.49 58.4976 100.49C58.9176 100.49 59.2942 100.607 59.6276 100.84C59.9676 101.073 60.2009 101.38 60.3276 101.76L60.0676 101.77C60.2076 101.35 60.4442 101.033 60.7776 100.82C61.1109 100.6 61.4809 100.49 61.8876 100.49C62.2609 100.49 62.5976 100.577 62.8976 100.75C63.2042 100.923 63.4476 101.163 63.6276 101.47C63.8076 101.777 63.8976 102.123 63.8976 102.51V106H62.9576V102.81C62.9576 102.51 62.9042 102.257 62.7976 102.05C62.6909 101.843 62.5442 101.683 62.3576 101.57C62.1776 101.45 61.9642 101.39 61.7176 101.39C61.4776 101.39 61.2609 101.45 61.0676 101.57C60.8809 101.683 60.7309 101.847 60.6176 102.06C60.5109 102.267 60.4576 102.517 60.4576 102.81V106H59.5176V102.81C59.5176 102.51 59.4642 102.257 59.3576 102.05C59.2509 101.843 59.1042 101.683 58.9176 101.57C58.7376 101.45 58.5242 101.39 58.2776 101.39C58.0376 101.39 57.8209 101.45 57.6276 101.57C57.4409 101.683 57.2909 101.847 57.1776 102.06C57.0709 102.267 57.0176 102.517 57.0176 102.81V106H56.0876ZM67.5984 106.12C67.0784 106.12 66.6151 105.997 66.2084 105.75C65.8018 105.503 65.4818 105.167 65.2484 104.74C65.0151 104.307 64.8984 103.823 64.8984 103.29C64.8984 102.75 65.0118 102.27 65.2384 101.85C65.4718 101.43 65.7851 101.1 66.1784 100.86C66.5784 100.613 67.0251 100.49 67.5184 100.49C67.9184 100.49 68.2718 100.563 68.5784 100.71C68.8918 100.85 69.1551 101.043 69.3684 101.29C69.5884 101.53 69.7551 101.807 69.8684 102.12C69.9884 102.427 70.0484 102.747 70.0484 103.08C70.0484 103.153 70.0418 103.237 70.0284 103.33C70.0218 103.417 70.0118 103.5 69.9984 103.58H65.5784V102.78H69.4584L69.0184 103.14C69.0784 102.793 69.0451 102.483 68.9184 102.21C68.7918 101.937 68.6051 101.72 68.3584 101.56C68.1118 101.4 67.8318 101.32 67.5184 101.32C67.2051 101.32 66.9184 101.4 66.6584 101.56C66.3984 101.72 66.1951 101.95 66.0484 102.25C65.9084 102.543 65.8518 102.893 65.8784 103.3C65.8518 103.693 65.9118 104.04 66.0584 104.34C66.2118 104.633 66.4251 104.863 66.6984 105.03C66.9784 105.19 67.2818 105.27 67.6084 105.27C67.9684 105.27 68.2718 105.187 68.5184 105.02C68.7651 104.853 68.9651 104.64 69.1184 104.38L69.8984 104.78C69.7918 105.027 69.6251 105.253 69.3984 105.46C69.1784 105.66 68.9151 105.82 68.6084 105.94C68.3084 106.06 67.9718 106.12 67.5984 106.12ZM71.161 106V100.61H72.071V101.6L71.971 101.46C72.0977 101.153 72.291 100.927 72.551 100.78C72.811 100.627 73.1277 100.55 73.501 100.55H73.831V101.43H73.361C72.981 101.43 72.6744 101.55 72.441 101.79C72.2077 102.023 72.091 102.357 72.091 102.79V106H71.161ZM76.4871 106.12C75.9471 106.12 75.4771 105.987 75.0771 105.72C74.6771 105.453 74.3938 105.093 74.2271 104.64L74.9671 104.28C75.1204 104.6 75.3304 104.853 75.5971 105.04C75.8638 105.227 76.1604 105.32 76.4871 105.32C76.7804 105.32 77.0238 105.25 77.2171 105.11C77.4104 104.97 77.5071 104.787 77.5071 104.56C77.5071 104.4 77.4604 104.273 77.3671 104.18C77.2804 104.08 77.1738 104.003 77.0471 103.95C76.9204 103.89 76.8038 103.847 76.6971 103.82L75.8871 103.59C75.4004 103.45 75.0438 103.25 74.8171 102.99C74.5971 102.73 74.4871 102.427 74.4871 102.08C74.4871 101.76 74.5671 101.483 74.7271 101.25C74.8938 101.01 75.1171 100.823 75.3971 100.69C75.6838 100.557 76.0038 100.49 76.3571 100.49C76.8304 100.49 77.2538 100.61 77.6271 100.85C78.0071 101.09 78.2771 101.427 78.4371 101.86L77.6771 102.21C77.5571 101.93 77.3771 101.71 77.1371 101.55C76.8971 101.383 76.6271 101.3 76.3271 101.3C76.0538 101.3 75.8371 101.37 75.6771 101.51C75.5171 101.643 75.4371 101.813 75.4371 102.02C75.4371 102.173 75.4771 102.3 75.5571 102.4C75.6371 102.493 75.7338 102.567 75.8471 102.62C75.9604 102.667 76.0704 102.707 76.1771 102.74L77.0571 103C77.4971 103.127 77.8371 103.323 78.0771 103.59C78.3238 103.857 78.4471 104.177 78.4471 104.55C78.4471 104.85 78.3638 105.12 78.1971 105.36C78.0304 105.6 77.8004 105.787 77.5071 105.92C77.2138 106.053 76.8738 106.12 76.4871 106.12Z" fill="#101828"/>
</g>
<rect x="0.5" y="0.5" width="158" height="123" rx="13.5" stroke="#FFD934"/>
<defs>
<linearGradient id="paint0_linear_9020_181127" x1="123.094" y1="114.096" x2="137.556" y2="139.146" gradientUnits="userSpaceOnUse">
<stop stop-color="#00CE66"/>
<stop offset="0.12" stop-color="#04CE64"/>
<stop offset="0.24" stop-color="#10CF5F"/>
<stop offset="0.37" stop-color="#25D056"/>
<stop offset="0.5" stop-color="#43D24A"/>
<stop offset="0.63" stop-color="#69D43B"/>
<stop offset="0.76" stop-color="#98D729"/>
<stop offset="0.9" stop-color="#CEDA13"/>
<stop offset="1" stop-color="#FFDE00"/>
</linearGradient>
<linearGradient id="paint1_linear_9020_181127" x1="157.218" y1="104.989" x2="142.756" y2="79.9404" gradientUnits="userSpaceOnUse">
<stop stop-color="#00CE66"/>
<stop offset="0.12" stop-color="#04CE64"/>
<stop offset="0.24" stop-color="#10CF5F"/>
<stop offset="0.37" stop-color="#25D056"/>
<stop offset="0.5" stop-color="#43D24A"/>
<stop offset="0.63" stop-color="#69D43B"/>
<stop offset="0.76" stop-color="#98D729"/>
<stop offset="0.9" stop-color="#CEDA13"/>
<stop offset="1" stop-color="#FFDE00"/>
</linearGradient>
<clipPath id="clip0_9020_181127">
<rect width="159" height="124" rx="14" fill="white"/>
</clipPath>
</defs>
</svg>
