 <svg
              width="18"
              height="18"
              viewBox="0 0 18 18"
              fill="none"
              xmlns="http://www.w3.org/2000/svg"
            >
              <path
                d="M11.25 11.25C11.25 11.8713 11.7537 12.375 12.375 12.375C12.9963 12.375 13.5 11.8713 13.5 11.25C13.5 10.6287 12.9963 10.125 12.375 10.125C11.7537 10.125 11.25 10.6287 11.25 11.25Z"
                stroke="#FF7434"
                stroke-width="1.5"
              />
              <path
                d="M2.25 9V4.5C3.82852 4.966 7.18214 5.57003 11.2528 5.85211C13.4439 6.00393 14.5394 6.07985 15.1447 6.73266C15.75 7.38547 15.75 8.4373 15.75 10.541V12.0512C15.75 14.2175 15.75 15.3006 15.0122 15.9748C14.2744 16.649 13.2689 16.5508 11.258 16.3543C10.7679 16.3064 10.2635 16.2495 9.75 16.1822"
                stroke="#FF7434"
                stroke-width="1.5"
                stroke-linecap="round"
                stroke-linejoin="round"
              />
              <path
                d="M13.2193 6C13.5026 4.93255 13.759 2.99116 12.9952 2.02719C12.5112 1.4162 11.7917 1.4749 11.0863 1.53694C7.37843 1.86305 4.75908 2.52548 3.29476 2.97553C2.66511 3.16905 2.25 3.78391 2.25 4.47033"
                stroke="#FF7434"
                stroke-width="1.5"
                stroke-linejoin="round"
              />
              <path
                d="M8.25 13.5H5.25M5.25 13.5H2.25M5.25 13.5V16.5M5.25 13.5L5.25 10.5"
                stroke="#FF7434"
                stroke-width="1.5"
                stroke-linecap="round"
              />
            </svg>