<svg width="24" height="24" viewBox="0 0 24 24" fill="none" xmlns="http://www.w3.org/2000/svg">
<rect width="24" height="24" rx="12" fill="url(#paint0_linear_9544_9419)"/>
<path fill-rule="evenodd" clip-rule="evenodd" d="M16.6406 10.8752H16.5V14.5676C16.8095 14.654 17.0639 14.889 17.169 15.2045L17.3566 15.767C17.569 16.4044 17.0946 17.0627 16.4227 17.0627H7.5773C6.90541 17.0627 6.43097 16.4044 6.64344 15.767L6.83094 15.2045C6.93612 14.889 7.19052 14.654 7.5 14.5676V10.8752H7.35938C6.81572 10.8752 6.375 10.4344 6.375 9.89079V9.63105C6.375 9.25967 6.58402 8.9199 6.9155 8.75243L11.5561 6.408C11.8352 6.26699 12.1648 6.26699 12.4439 6.408L17.0845 8.75243C17.416 8.9199 17.625 9.25967 17.625 9.63105V9.89079C17.625 10.4344 17.1843 10.8752 16.6406 10.8752ZM14.25 10.8752H15.6563V14.5314H14.25V10.8752ZM9.75 14.5314H8.34375V10.8752H9.75V14.5314ZM10.5938 14.5314V10.8752H13.4063V14.5314H10.5938Z" fill="#71767E"/>
<path d="M8.34375 10.875H7.5V14.5664L8.34375 14.5312V10.875Z" fill="#B3BCCB"/>
<path d="M14.25 10.875H13.4062V14.5312H14.25V10.875Z" fill="#B3BCCB"/>
<path d="M10.5938 10.875H9.75V14.5312H10.5938V10.875Z" fill="#B3BCCB"/>
<path d="M16.5 10.875H15.6562V14.5312L16.5 14.573V10.875Z" fill="#B3BCCB"/>
<defs>
<linearGradient id="paint0_linear_9544_9419" x1="12" y1="0" x2="12" y2="24" gradientUnits="userSpaceOnUse">
<stop stop-color="#F2F4F7"/>
<stop offset="1" stop-color="#D8DCE1"/>
</linearGradient>
</defs>
</svg>
