<svg width="40" height="36" viewBox="0 0 40 36" fill="none"
    xmlns="http://www.w3.org/2000/svg">
    <rect width="36" height="36" rx="18" fill="#F5EDE9"/>
    <path d="M15.5 23C15.5 23.663 15.7634 24.2989 16.2322 24.7678C16.7011 25.2366 17.337 25.5 18 25.5C18.663 25.5 19.2989 25.2366 19.7678 24.7678C20.2366 24.2989 20.5 23.663 20.5 23" stroke="#475467" stroke-linecap="round" stroke-linejoin="round"/>
    <path d="M12.375 16.125C12.375 14.6332 12.9677 13.2024 14.0225 12.1475C15.0774 11.0926 16.5082 10.5 18 10.5C19.4919 10.5 20.9226 11.0926 21.9775 12.1475C23.0324 13.2024 23.625 14.6332 23.625 16.125C23.625 18.9234 24.2735 21.1719 24.7891 22.0625C24.8438 22.1574 24.8727 22.2649 24.8728 22.3745C24.8729 22.484 24.8442 22.5916 24.7896 22.6865C24.735 22.7815 24.6565 22.8604 24.5618 22.9154C24.467 22.9705 24.3595 22.9996 24.25 23H11.75C11.6406 22.9993 11.5333 22.97 11.4388 22.9149C11.3444 22.8597 11.266 22.7808 11.2116 22.6859C11.1572 22.591 11.1286 22.4835 11.1288 22.3741C11.129 22.2647 11.1578 22.1572 11.2125 22.0625C11.7274 21.1719 12.375 18.9227 12.375 16.125Z" stroke="#475467" stroke-linecap="round" stroke-linejoin="round"/>
    <circle cx="32.5" cy="8.5" r="7.5" fill="#E12829"/>
    <path d="M29.6817 12.5383V11.7032C30.4686 10.9886 31.145 10.3529 31.7108 9.79618C32.2856 9.23113 32.7276 8.72009 33.0371 8.26306C33.3466 7.79773 33.5013 7.36563 33.5013 6.96677C33.5013 6.55129 33.3819 6.2189 33.1432 5.96962C32.9045 5.72033 32.5597 5.59568 32.1087 5.59568C31.7816 5.59568 31.481 5.68294 31.2069 5.85744C30.9416 6.03194 30.694 6.23968 30.4642 6.48066L29.6154 5.68294C30.0044 5.29238 30.4067 4.99324 30.8223 4.7855C31.2378 4.56945 31.733 4.46143 32.3077 4.46143C33.1211 4.46143 33.7666 4.68163 34.244 5.12204C34.7303 5.56245 34.9734 6.15243 34.9734 6.89198C34.9734 7.35732 34.832 7.83512 34.549 8.32539C34.2749 8.80734 33.9036 9.30176 33.435 9.80865C32.9752 10.3155 32.4668 10.8473 31.9098 11.4041C32.1308 11.3875 32.3696 11.3709 32.626 11.3542C32.8824 11.3293 33.1123 11.3168 33.3156 11.3168H35.3846V12.5383H29.6817Z" fill="white"/>
</svg>
