<svg width="24" height="24" viewBox="0 0 24 24" fill="none" xmlns="http://www.w3.org/2000/svg">
<rect width="24" height="24" rx="12" fill="url(#paint0_linear_9544_9441)"/>
<path d="M16.5 7.5H7.5C6.87868 7.5 6.375 8.00368 6.375 8.625V10.3125H17.625V8.62431C17.625 8.00209 17.1204 7.5 16.5 7.5Z" fill="#BCBFC5"/>
<path fill-rule="evenodd" clip-rule="evenodd" d="M6.375 15.375V11.4375H17.625V15.375C17.625 15.9963 17.1213 16.5 16.5 16.5H7.5C6.87868 16.5 6.375 15.9963 6.375 15.375ZM9.1875 12.5625C8.87684 12.5625 8.625 12.8143 8.625 13.125C8.625 13.4357 8.87684 13.6875 9.1875 13.6875H10.875C11.1857 13.6875 11.4375 13.4357 11.4375 13.125C11.4375 12.8143 11.1857 12.5625 10.875 12.5625H9.1875Z" fill="#71767E"/>
<defs>
<linearGradient id="paint0_linear_9544_9441" x1="12" y1="0" x2="12" y2="24" gradientUnits="userSpaceOnUse">
<stop stop-color="#F2F4F7"/>
<stop offset="1" stop-color="#D8DCE1"/>
</linearGradient>
</defs>
</svg>
