<svg width="25" height="24" viewBox="0 0 25 24" fill="none" xmlns="http://www.w3.org/2000/svg">
<path d="M8 3.75C7.25832 3.75 6.5333 3.96994 5.91661 4.38199C5.29993 4.79405 4.81928 5.37972 4.53545 6.06494C4.25162 6.75016 4.17736 7.50416 4.32206 8.23159C4.46675 8.95902 4.8239 9.6272 5.34835 10.1517C5.8728 10.6761 6.54098 11.0333 7.26841 11.1779C7.99584 11.3226 8.74984 11.2484 9.43506 10.9646C10.1203 10.6807 10.706 10.2001 11.118 9.58339C11.5301 8.96671 11.75 8.24168 11.75 7.5C11.75 6.50544 11.3549 5.55161 10.6517 4.84835C9.94839 4.14509 8.99456 3.75 8 3.75ZM8 9.75C7.55499 9.75 7.11998 9.61804 6.74997 9.37081C6.37996 9.12358 6.09157 8.77217 5.92127 8.36104C5.75098 7.94991 5.70642 7.49751 5.79323 7.06105C5.88005 6.62459 6.09434 6.22368 6.40901 5.90901C6.72368 5.59434 7.12459 5.38005 7.56105 5.29323C7.99751 5.20642 8.44991 5.25098 8.86104 5.42127C9.27217 5.59157 9.62358 5.87996 9.87081 6.24997C10.118 6.61998 10.25 7.05499 10.25 7.5C10.25 8.09674 10.0129 8.66904 9.59099 9.09099C9.16904 9.51295 8.59674 9.75 8 9.75ZM17 11.25C17.7417 11.25 18.4667 11.0301 19.0834 10.618C19.7001 10.206 20.1807 9.62029 20.4646 8.93506C20.7484 8.24984 20.8226 7.49584 20.6779 6.76841C20.5333 6.04098 20.1761 5.3728 19.6517 4.84835C19.1272 4.3239 18.459 3.96675 17.7316 3.82206C17.0042 3.67736 16.2502 3.75162 15.5649 4.03545C14.8797 4.31928 14.294 4.79993 13.882 5.41661C13.4699 6.0333 13.25 6.75832 13.25 7.5C13.25 8.49456 13.6451 9.44839 14.3484 10.1517C15.0516 10.8549 16.0054 11.25 17 11.25ZM17 5.25C17.445 5.25 17.88 5.38196 18.25 5.6292C18.62 5.87643 18.9084 6.22783 19.0787 6.63896C19.249 7.0501 19.2936 7.5025 19.2068 7.93895C19.12 8.37541 18.9057 8.77632 18.591 9.09099C18.2763 9.40566 17.8754 9.61995 17.439 9.70677C17.0025 9.79359 16.5501 9.74903 16.139 9.57873C15.7278 9.40843 15.3764 9.12005 15.1292 8.75003C14.882 8.38002 14.75 7.94501 14.75 7.5C14.75 6.90326 14.9871 6.33097 15.409 5.90901C15.831 5.48705 16.4033 5.25 17 5.25ZM8 12.75C7.25832 12.75 6.5333 12.9699 5.91661 13.382C5.29993 13.794 4.81928 14.3797 4.53545 15.0649C4.25162 15.7502 4.17736 16.5042 4.32206 17.2316C4.46675 17.959 4.8239 18.6272 5.34835 19.1517C5.8728 19.6761 6.54098 20.0333 7.26841 20.1779C7.99584 20.3226 8.74984 20.2484 9.43506 19.9646C10.1203 19.6807 10.706 19.2001 11.118 18.5834C11.5301 17.9667 11.75 17.2417 11.75 16.5C11.75 15.5054 11.3549 14.5516 10.6517 13.8484C9.94839 13.1451 8.99456 12.75 8 12.75ZM8 18.75C7.55499 18.75 7.11998 18.618 6.74997 18.3708C6.37996 18.1236 6.09157 17.7722 5.92127 17.361C5.75098 16.9499 5.70642 16.4975 5.79323 16.061C5.88005 15.6246 6.09434 15.2237 6.40901 14.909C6.72368 14.5943 7.12459 14.3801 7.56105 14.2932C7.99751 14.2064 8.44991 14.251 8.86104 14.4213C9.27217 14.5916 9.62358 14.88 9.87081 15.25C10.118 15.62 10.25 16.055 10.25 16.5C10.25 17.0967 10.0129 17.669 9.59099 18.091C9.16904 18.5129 8.59674 18.75 8 18.75ZM20.75 16.5C20.75 16.6989 20.671 16.8897 20.5303 17.0303C20.3897 17.171 20.1989 17.25 20 17.25H17.75V19.5C17.75 19.6989 17.671 19.8897 17.5303 20.0303C17.3897 20.171 17.1989 20.25 17 20.25C16.8011 20.25 16.6103 20.171 16.4697 20.0303C16.329 19.8897 16.25 19.6989 16.25 19.5V17.25H14C13.8011 17.25 13.6103 17.171 13.4697 17.0303C13.329 16.8897 13.25 16.6989 13.25 16.5C13.25 16.3011 13.329 16.1103 13.4697 15.9697C13.6103 15.829 13.8011 15.75 14 15.75H16.25V13.5C16.25 13.3011 16.329 13.1103 16.4697 12.9697C16.6103 12.829 16.8011 12.75 17 12.75C17.1989 12.75 17.3897 12.829 17.5303 12.9697C17.671 13.1103 17.75 13.3011 17.75 13.5V15.75H20C20.1989 15.75 20.3897 15.829 20.5303 15.9697C20.671 16.1103 20.75 16.3011 20.75 16.5Z" fill="#FC5900"/>
</svg>
