<svg width="25" height="24" viewBox="0 0 25 24" fill="none" xmlns="http://www.w3.org/2000/svg">
<path d="M11.531 15.9695C11.6008 16.0391 11.6561 16.1218 11.6938 16.2129C11.7316 16.3039 11.751 16.4015 11.751 16.5001C11.751 16.5987 11.7316 16.6963 11.6938 16.7873C11.6561 16.8784 11.6008 16.9611 11.531 17.0307L8.53104 20.0307C8.46139 20.1005 8.37867 20.1558 8.28762 20.1935C8.19657 20.2313 8.09898 20.2507 8.00042 20.2507C7.90186 20.2507 7.80426 20.2313 7.71321 20.1935C7.62216 20.1558 7.53945 20.1005 7.46979 20.0307L4.46979 17.0307C4.40011 16.961 4.34483 16.8783 4.30712 16.7873C4.26941 16.6962 4.25 16.5986 4.25 16.5001C4.25 16.4016 4.26941 16.304 4.30712 16.2129C4.34483 16.1219 4.40011 16.0392 4.46979 15.9695C4.61052 15.8287 4.80139 15.7497 5.00042 15.7497C5.09896 15.7497 5.19654 15.7691 5.28759 15.8068C5.37863 15.8445 5.46136 15.8998 5.53104 15.9695L7.25042 17.6898V4.5001C7.25042 4.30119 7.32943 4.11042 7.47009 3.96977C7.61074 3.82912 7.8015 3.7501 8.00042 3.7501C8.19933 3.7501 8.39009 3.82912 8.53075 3.96977C8.6714 4.11042 8.75042 4.30119 8.75042 4.5001V17.6898L10.4698 15.9695C10.5394 15.8997 10.6222 15.8444 10.7132 15.8067C10.8043 15.7689 10.9019 15.7495 11.0004 15.7495C11.099 15.7495 11.1966 15.7689 11.2876 15.8067C11.3787 15.8444 11.4614 15.8997 11.531 15.9695ZM20.531 6.96948L17.531 3.96948C17.4614 3.89974 17.3787 3.84443 17.2876 3.80668C17.1966 3.76894 17.099 3.74951 17.0004 3.74951C16.9019 3.74951 16.8043 3.76894 16.7132 3.80668C16.6222 3.84443 16.5394 3.89974 16.4698 3.96948L13.4698 6.96948C13.3291 7.11021 13.25 7.30108 13.25 7.5001C13.25 7.69912 13.3291 7.89 13.4698 8.03073C13.6105 8.17146 13.8014 8.25052 14.0004 8.25052C14.1994 8.25052 14.3903 8.17146 14.531 8.03073L16.2504 6.31041V19.5001C16.2504 19.699 16.3294 19.8898 16.4701 20.0304C16.6107 20.1711 16.8015 20.2501 17.0004 20.2501C17.1993 20.2501 17.3901 20.1711 17.5307 20.0304C17.6714 19.8898 17.7504 19.699 17.7504 19.5001V6.31041L19.4698 8.03073C19.6105 8.17146 19.8014 8.25052 20.0004 8.25052C20.1994 8.25052 20.3903 8.17146 20.531 8.03073C20.6718 7.89 20.7508 7.69912 20.7508 7.5001C20.7508 7.30108 20.6718 7.11021 20.531 6.96948Z" fill="#FF7434"/>
</svg>
