<svg width="25" height="24" viewBox="0 0 25 24" fill="none" xmlns="http://www.w3.org/2000/svg">
<path d="M22.6685 8.27134C22.6309 9.57695 22.094 10.8184 21.1685 11.7401L17.9107 14.9998C17.4362 15.4769 16.8718 15.8551 16.2502 16.1126C15.6285 16.37 14.962 16.5016 14.2891 16.4998H14.2844C13.6001 16.4993 12.9228 16.3617 12.2925 16.095C11.6623 15.8284 11.0918 15.4381 10.6149 14.9473C10.138 14.4565 9.76433 13.8751 9.5159 13.2375C9.26746 12.5998 9.14934 11.9188 9.1685 11.2348C9.1741 11.0359 9.25848 10.8473 9.40309 10.7106C9.5477 10.5739 9.74069 10.5003 9.9396 10.5059C10.1385 10.5115 10.3271 10.5958 10.4637 10.7405C10.6004 10.8851 10.6741 11.078 10.6685 11.277C10.6548 11.7606 10.7383 12.2422 10.9139 12.693C11.0895 13.1439 11.3537 13.555 11.6908 13.9021C12.028 14.2492 12.4313 14.5251 12.877 14.7136C13.3226 14.9022 13.8015 14.9995 14.2854 14.9998C14.761 15.001 15.2322 14.9079 15.6717 14.7259C16.1111 14.5439 16.5102 14.2766 16.8457 13.9395L20.1035 10.6817C20.7757 10.001 21.1512 9.08213 21.1482 8.12556C21.1452 7.169 20.7639 6.25246 20.0875 5.57606C19.4111 4.89967 18.4946 4.51834 17.538 4.51535C16.5815 4.51236 15.6626 4.88794 14.9819 5.56009L13.9507 6.59134C13.8089 6.72605 13.6201 6.80005 13.4245 6.79754C13.2289 6.79504 13.0421 6.71624 12.9038 6.57793C12.7655 6.43963 12.6867 6.25278 12.6842 6.05721C12.6817 5.86163 12.7557 5.67282 12.8904 5.53103L13.9216 4.49978C14.3974 4.02383 14.9623 3.64629 15.584 3.3887C16.2057 3.13111 16.8721 2.99854 17.5451 2.99854C18.218 2.99854 18.8844 3.13111 19.5061 3.3887C20.1278 3.64629 20.6927 4.02383 21.1685 4.49978C21.6613 4.9938 22.0484 5.58293 22.3063 6.23133C22.5642 6.87972 22.6874 7.5738 22.6685 8.27134ZM10.3873 17.4054L9.356 18.4366C9.01965 18.7752 8.61935 19.0436 8.17836 19.2261C7.73738 19.4086 7.26451 19.5016 6.78725 19.4998C6.07129 19.4992 5.37156 19.2864 4.77647 18.8883C4.18139 18.4902 3.71765 17.9247 3.44386 17.2631C3.17007 16.6016 3.09851 15.8737 3.23823 15.1715C3.37794 14.4693 3.72265 13.8243 4.22882 13.3179L7.481 10.0601C7.99324 9.54515 8.64848 9.19613 9.36162 9.05836C10.0748 8.92059 10.8129 9.00043 11.48 9.28752C12.1472 9.57461 12.7127 10.0557 13.1029 10.6682C13.4932 11.2808 13.6902 11.9966 13.6685 12.7226C13.6629 12.9215 13.7366 13.1145 13.8733 13.2591C14.01 13.4037 14.1985 13.4881 14.3974 13.4937C14.5963 13.4993 14.7893 13.4256 14.9339 13.2889C15.0785 13.1522 15.1629 12.9637 15.1685 12.7648C15.1865 12.0683 15.0628 11.3755 14.805 10.7283C14.5471 10.0811 14.1605 9.49303 13.6685 8.99977C12.7077 8.03942 11.4049 7.49994 10.0465 7.49994C8.68804 7.49994 7.38521 8.03942 6.42444 8.99977L3.1685 12.2576C2.45247 12.9733 1.96468 13.8853 1.76676 14.8782C1.56885 15.871 1.66971 16.9003 2.05658 17.8359C2.44346 18.7715 3.09899 19.5714 3.94034 20.1345C4.78169 20.6977 5.77109 20.9988 6.7835 20.9998C7.45651 21.0017 8.12321 20.8701 8.74502 20.6127C9.36683 20.3552 9.93138 19.9769 10.406 19.4998L11.4373 18.4685C11.5586 18.3256 11.622 18.1423 11.615 17.9549C11.6079 17.7675 11.5309 17.5895 11.3991 17.4561C11.2673 17.3227 11.0903 17.2435 10.903 17.2341C10.7157 17.2247 10.5317 17.2858 10.3873 17.4054Z" fill="#FF7434"/>
</svg>
