<svg width="40" height="41" viewBox="0 0 40 41" fill="none" xmlns="http://www.w3.org/2000/svg">
<rect y="0.5" width="40" height="40" rx="10" fill="#EBEEF3"/>
<path fill-rule="evenodd" clip-rule="evenodd" d="M10.7917 9C10.3544 9 10 9.35444 10 9.79167V32.2083C10 32.6456 10.3544 33 10.7917 33H29.2083C29.6456 33 30 32.6456 30 32.2083V9.79167C30 9.78835 30 9.78504 29.9999 9.78173V13L25.9999 9H10.7917Z" fill="white"/>
<path fill-rule="evenodd" clip-rule="evenodd" d="M25.9999 9V13H29.9999L25.9999 9Z" fill="#98A2B3"/>
<rect x="9" y="19" width="22" height="10" rx="0.791667" fill="#E51C19"/>
<path d="M14.1921 26.3028V21.6968H15.9194C16.2733 21.6968 16.5701 21.7627 16.81 21.8947C17.0514 22.0266 17.2336 22.2081 17.3566 22.439C17.481 22.6684 17.5432 22.9293 17.5432 23.2216C17.5432 23.517 17.481 23.7794 17.3566 24.0088C17.2321 24.2382 17.0484 24.4189 16.8055 24.5508C16.5626 24.6813 16.2635 24.7465 15.9082 24.7465H14.7634V24.0605H15.7957C16.0026 24.0605 16.1721 24.0245 16.304 23.9526C16.4359 23.8806 16.5334 23.7816 16.5964 23.6557C16.6608 23.5298 16.6931 23.3851 16.6931 23.2216C16.6931 23.0582 16.6608 22.9143 16.5964 22.7898C16.5334 22.6654 16.4352 22.5687 16.3018 22.4997C16.1698 22.4292 15.9996 22.394 15.7912 22.394H15.0265V26.3028H14.1921Z" fill="white"/>
<path d="M19.8288 26.3028H18.268V21.6968H19.8603C20.3176 21.6968 20.7105 21.789 21.0388 21.9734C21.3687 22.1563 21.6221 22.4195 21.799 22.7628C21.9759 23.1062 22.0644 23.517 22.0644 23.9953C22.0644 24.4751 21.9752 24.8874 21.7967 25.2323C21.6198 25.5771 21.3642 25.8418 21.0298 26.0262C20.697 26.2106 20.2966 26.3028 19.8288 26.3028ZM19.1024 25.5809H19.7883C20.1092 25.5809 20.3768 25.5224 20.5913 25.4055C20.8057 25.287 20.9668 25.1108 21.0748 24.8769C21.1828 24.6415 21.2367 24.3477 21.2367 23.9953C21.2367 23.643 21.1828 23.3506 21.0748 23.1182C20.9668 22.8843 20.8072 22.7096 20.5958 22.5941C20.3858 22.4772 20.125 22.4187 19.8131 22.4187H19.1024V25.5809Z" fill="white"/>
<path d="M22.8572 26.3028V21.6968H25.8079V22.3962H23.6916V23.6467H25.6055V24.3462H23.6916V26.3028H22.8572Z" fill="white"/>
</svg>
