<svg width="33" height="32" viewBox="0 0 33 32" fill="none" xmlns="http://www.w3.org/2000/svg">
<rect x="0.833496" width="32" height="32" rx="16" fill="url(#paint0_linear_8457_10858)"/>
<path opacity="0.35" d="M20.2085 16C22.0725 16 23.5835 14.489 23.5835 12.625C23.5835 10.761 22.0725 9.25 20.2085 9.25C18.3445 9.25 16.8335 10.761 16.8335 12.625C16.8335 14.489 18.3445 16 20.2085 16Z" fill="#71767E"/>
<path opacity="0.87" d="M9.3335 21.1977V16.847C9.3335 16.3355 9.68525 15.8907 10.1832 15.7722L11.912 15.3635C12.7955 15.1542 13.7232 15.236 14.5572 15.5952L17.8415 17.0112C18.8832 17.4605 19.3527 18.6785 18.881 19.7105L19.1607 20.0772L22.6505 18.8315C23.3127 18.5855 24.047 18.9372 24.2705 19.607C24.467 20.1965 24.2 20.8407 23.6442 21.119L20.177 22.865C19.4862 23.21 18.6867 23.267 17.954 23.0232L13.349 21.488C12.6927 21.269 11.984 21.2675 11.3262 21.482L10.2222 21.8427C9.78425 21.986 9.3335 21.659 9.3335 21.1977Z" fill="#71767E"/>
<path d="M21.3337 8.5C20.4817 8.5 19.7159 8.85925 19.1699 9.43C19.4992 9.32275 19.8442 9.25 20.2087 9.25C22.0724 9.25 23.5837 10.7613 23.5837 12.625C23.5837 12.9895 23.5109 13.3345 23.4037 13.6638C23.9744 13.117 24.3337 12.352 24.3337 11.5C24.3337 9.84325 22.9904 8.5 21.3337 8.5Z" fill="#71767E"/>
<defs>
<linearGradient id="paint0_linear_8457_10858" x1="16.8335" y1="0" x2="16.8335" y2="32" gradientUnits="userSpaceOnUse">
<stop stop-color="#F2F4F7"/>
<stop offset="1" stop-color="#D8DCE1"/>
</linearGradient>
</defs>
</svg>
