<svg width="25" height="24" viewBox="0 0 25 24" fill="none" xmlns="http://www.w3.org/2000/svg">
<path d="M20.1139 17.0306L15.6139 21.5306C15.5443 21.6004 15.4616 21.6557 15.3705 21.6934C15.2795 21.7312 15.1819 21.7506 15.0833 21.7506C14.9848 21.7506 14.8872 21.7312 14.7961 21.6934C14.7051 21.6557 14.6223 21.6004 14.5527 21.5306L10.0527 17.0306C9.91196 16.8899 9.8329 16.699 9.8329 16.5C9.8329 16.301 9.91196 16.1101 10.0527 15.9694C10.1934 15.8286 10.3843 15.7496 10.5833 15.7496C10.7823 15.7496 10.9732 15.8286 11.1139 15.9694L14.3333 19.1897V12C14.3308 9.81273 13.4608 7.71575 11.9142 6.16911C10.3676 4.62247 8.27059 3.75248 6.08331 3.75C5.8844 3.75 5.69364 3.67098 5.55298 3.53033C5.41233 3.38968 5.33331 3.19891 5.33331 3C5.33331 2.80109 5.41233 2.61032 5.55298 2.46967C5.69364 2.32902 5.8844 2.25 6.08331 2.25C8.66834 2.25273 11.1467 3.28084 12.9746 5.10872C14.8025 6.93661 15.8306 9.41498 15.8333 12V19.1897L19.0527 15.9694C19.1934 15.8286 19.3843 15.7496 19.5833 15.7496C19.7823 15.7496 19.9732 15.8286 20.1139 15.9694C20.2547 16.1101 20.3337 16.301 20.3337 16.5C20.3337 16.699 20.2547 16.8899 20.1139 17.0306Z" fill="#FC5900"/>
</svg>
