<svg width="56" height="56" viewBox="0 0 56 56" fill="none" xmlns="http://www.w3.org/2000/svg">
<rect width="56" height="56" rx="28" fill="#FC5900"/>
<path d="M35.1556 24.0306C35.086 24.1003 35.0033 24.1557 34.9122 24.1934C34.8212 24.2311 34.7236 24.2506 34.625 24.2506C34.5264 24.2506 34.4288 24.2311 34.3378 24.1934C34.2467 24.1557 34.164 24.1003 34.0944 24.0306L30.875 20.8103V28C30.8723 30.585 29.8442 33.0634 28.0163 34.8913C26.1884 36.7191 23.71 37.7472 21.125 37.75C20.9261 37.75 20.7353 37.671 20.5947 37.5303C20.454 37.3897 20.375 37.1989 20.375 37C20.375 36.8011 20.454 36.6103 20.5947 36.4696C20.7353 36.329 20.9261 36.25 21.125 36.25C23.3123 36.2475 25.4093 35.3775 26.9559 33.8309C28.5025 32.2842 29.3725 30.1873 29.375 28V20.8103L26.1556 24.0306C26.0149 24.1713 25.824 24.2504 25.625 24.2504C25.426 24.2504 25.2351 24.1713 25.0944 24.0306C24.9536 23.8899 24.8746 23.699 24.8746 23.5C24.8746 23.301 24.9536 23.1101 25.0944 22.9694L29.5944 18.4694C29.664 18.3996 29.7467 18.3443 29.8378 18.3066C29.9288 18.2688 30.0264 18.2494 30.125 18.2494C30.2236 18.2494 30.3212 18.2688 30.4122 18.3066C30.5033 18.3443 30.586 18.3996 30.6556 18.4694L35.1556 22.9694C35.2254 23.039 35.2807 23.1217 35.3184 23.2128C35.3562 23.3038 35.3756 23.4014 35.3756 23.5C35.3756 23.5985 35.3562 23.6961 35.3184 23.7872C35.2807 23.8782 35.2254 23.961 35.1556 24.0306Z" fill="white"/>
</svg>
