<svg width="25" height="24" viewBox="0 0 25 24" fill="none" xmlns="http://www.w3.org/2000/svg">
<path d="M19.7806 8.03073C19.711 8.10046 19.6283 8.15578 19.5372 8.19352C19.4462 8.23126 19.3486 8.25069 19.25 8.25069C19.1514 8.25069 19.0538 8.23126 18.9628 8.19352C18.8717 8.15578 18.789 8.10046 18.7194 8.03073L15.5 4.81041V12.0001C15.4973 14.5851 14.4692 17.0635 12.6413 18.8914C10.8134 20.7193 8.33502 21.7474 5.75 21.7501C5.55109 21.7501 5.36032 21.6711 5.21967 21.5304C5.07902 21.3898 5 21.199 5 21.0001C5 20.8012 5.07902 20.6104 5.21967 20.4698C5.36032 20.3291 5.55109 20.2501 5.75 20.2501C7.93727 20.2476 10.0343 19.3776 11.5809 17.831C13.1275 16.2844 13.9975 14.1874 14 12.0001V4.81041L10.7806 8.03073C10.6399 8.17146 10.449 8.25052 10.25 8.25052C10.051 8.25052 9.86011 8.17146 9.71937 8.03073C9.57864 7.89 9.49958 7.69912 9.49958 7.5001C9.49958 7.30108 9.57864 7.11021 9.71937 6.96948L14.2194 2.46948C14.289 2.39974 14.3717 2.34442 14.4628 2.30668C14.5538 2.26894 14.6514 2.24951 14.75 2.24951C14.8486 2.24951 14.9462 2.26894 15.0372 2.30668C15.1283 2.34442 15.211 2.39974 15.2806 2.46948L19.7806 6.96948C19.8504 7.03913 19.9057 7.12185 19.9434 7.2129C19.9812 7.30395 20.0006 7.40154 20.0006 7.5001C20.0006 7.59866 19.9812 7.69626 19.9434 7.78731C19.9057 7.87836 19.8504 7.96107 19.7806 8.03073Z" fill="#FC5900"/>
</svg>
