<svg width="54" height="54" viewBox="0 0 54 54" fill="none" xmlns="http://www.w3.org/2000/svg">
<rect width="54" height="54" rx="27" fill="#FC5900"/>
<path d="M26.0306 30.9695C26.1003 31.0391 26.1557 31.1218 26.1934 31.2129C26.2312 31.3039 26.2506 31.4015 26.2506 31.5001C26.2506 31.5987 26.2312 31.6963 26.1934 31.7873C26.1557 31.8784 26.1003 31.9611 26.0306 32.0307L23.0306 35.0307C22.961 35.1005 22.8782 35.1558 22.7872 35.1935C22.6961 35.2313 22.5986 35.2507 22.5 35.2507C22.4014 35.2507 22.3038 35.2313 22.2128 35.1935C22.1217 35.1558 22.039 35.1005 21.9694 35.0307L18.9694 32.0307C18.8997 31.961 18.8444 31.8783 18.8067 31.7873C18.769 31.6962 18.7496 31.5986 18.7496 31.5001C18.7496 31.4016 18.769 31.304 18.8067 31.2129C18.8444 31.1219 18.8997 31.0392 18.9694 30.9695C19.1101 30.8287 19.301 30.7497 19.5 30.7497C19.5985 30.7497 19.6961 30.7691 19.7872 30.8068C19.8782 30.8445 19.9609 30.8998 20.0306 30.9695L21.75 32.6898V19.5001C21.75 19.3012 21.829 19.1104 21.9697 18.9698C22.1103 18.8291 22.3011 18.7501 22.5 18.7501C22.6989 18.7501 22.8897 18.8291 23.0303 18.9698C23.171 19.1104 23.25 19.3012 23.25 19.5001V32.6898L24.9694 30.9695C25.039 30.8997 25.1217 30.8444 25.2128 30.8067C25.3038 30.7689 25.4014 30.7495 25.5 30.7495C25.5986 30.7495 25.6961 30.7689 25.7872 30.8067C25.8782 30.8444 25.961 30.8997 26.0306 30.9695ZM35.0306 21.9695L32.0306 18.9695C31.961 18.8997 31.8782 18.8444 31.7872 18.8067C31.6961 18.7689 31.5986 18.7495 31.5 18.7495C31.4014 18.7495 31.3038 18.7689 31.2128 18.8067C31.1217 18.8444 31.039 18.8997 30.9694 18.9695L27.9694 21.9695C27.8286 22.1102 27.7496 22.3011 27.7496 22.5001C27.7496 22.6991 27.8286 22.89 27.9694 23.0307C28.1101 23.1715 28.301 23.2505 28.5 23.2505C28.699 23.2505 28.8899 23.1715 29.0306 23.0307L30.75 21.3104V34.5001C30.75 34.699 30.829 34.8898 30.9697 35.0304C31.1103 35.1711 31.3011 35.2501 31.5 35.2501C31.6989 35.2501 31.8897 35.1711 32.0303 35.0304C32.171 34.8898 32.25 34.699 32.25 34.5001V21.3104L33.9694 23.0307C34.1101 23.1715 34.301 23.2505 34.5 23.2505C34.699 23.2505 34.8899 23.1715 35.0306 23.0307C35.1713 22.89 35.2504 22.6991 35.2504 22.5001C35.2504 22.3011 35.1713 22.1102 35.0306 21.9695Z" fill="#FCFCFD"/>
</svg>
