<svg width="25" height="24" viewBox="0 0 25 24" fill="none" xmlns="http://www.w3.org/2000/svg">
<path d="M20.4167 6H5.41669C5.21777 6 5.02701 5.92098 4.88636 5.78033C4.7457 5.63968 4.66669 5.44891 4.66669 5.25C4.66669 5.05109 4.7457 4.86032 4.88636 4.71967C5.02701 4.57902 5.21777 4.5 5.41669 4.5H18.1667C18.3656 4.5 18.5564 4.42098 18.697 4.28033C18.8377 4.13968 18.9167 3.94891 18.9167 3.75C18.9167 3.55109 18.8377 3.36032 18.697 3.21967C18.5564 3.07902 18.3656 3 18.1667 3H5.41669C4.81995 3 4.24765 3.23705 3.8257 3.65901C3.40374 4.08097 3.16669 4.65326 3.16669 5.25V17.25C3.16669 17.8467 3.40374 18.419 3.8257 18.841C4.24765 19.2629 4.81995 19.5 5.41669 19.5H20.4167C20.8145 19.5 21.196 19.342 21.4773 19.0607C21.7587 18.7794 21.9167 18.3978 21.9167 18V7.5C21.9167 7.10218 21.7587 6.72064 21.4773 6.43934C21.196 6.15804 20.8145 6 20.4167 6ZM20.4167 18H5.41669C5.21777 18 5.02701 17.921 4.88636 17.7803C4.7457 17.6397 4.66669 17.4489 4.66669 17.25V7.37156C4.90751 7.45693 5.16118 7.50037 5.41669 7.5H20.4167V18ZM15.9167 12.375C15.9167 12.1525 15.9827 11.935 16.1063 11.75C16.2299 11.565 16.4056 11.4208 16.6112 11.3356C16.8167 11.2505 17.0429 11.2282 17.2612 11.2716C17.4794 11.315 17.6798 11.4222 17.8372 11.5795C17.9945 11.7368 18.1017 11.9373 18.1451 12.1555C18.1885 12.3738 18.1662 12.6 18.0811 12.8055C17.9959 13.0111 17.8517 13.1868 17.6667 13.3104C17.4817 13.434 17.2642 13.5 17.0417 13.5C16.7433 13.5 16.4572 13.3815 16.2462 13.1705C16.0352 12.9595 15.9167 12.6734 15.9167 12.375Z" fill="#FC5900"/>
</svg>
