<svg width="24" height="24" viewBox="0 0 24 24" fill="none" xmlns="http://www.w3.org/2000/svg">
<rect width="24" height="24" rx="12" fill="url(#paint0_linear_9544_9449)"/>
<path opacity="0.35" d="M15.375 17.0625H8.625C7.69294 17.0625 6.9375 16.3071 6.9375 15.375V8.625H15.375C16.3071 8.625 17.0625 9.38044 17.0625 10.3125V15.375C17.0625 16.3071 16.3071 17.0625 15.375 17.0625Z" fill="#71767E"/>
<path d="M15.0938 13.6875C15.5597 13.6875 15.9375 13.3097 15.9375 12.8438C15.9375 12.3778 15.5597 12 15.0938 12C14.6278 12 14.25 12.3778 14.25 12.8438C14.25 13.3097 14.6278 13.6875 15.0938 13.6875Z" fill="#71767E"/>
<path d="M6.9375 8.625C6.9375 7.69294 7.69294 6.9375 8.625 6.9375H13.6875C14.6196 6.9375 15.375 7.69294 15.375 8.625H6.9375Z" fill="#71767E"/>
<defs>
<linearGradient id="paint0_linear_9544_9449" x1="12" y1="0" x2="12" y2="24" gradientUnits="userSpaceOnUse">
<stop stop-color="#F2F4F7"/>
<stop offset="1" stop-color="#D8DCE1"/>
</linearGradient>
</defs>
</svg>
