<svg width="40" height="40" viewBox="0 0 40 40" fill="none" xmlns="http://www.w3.org/2000/svg">
<rect width="40" height="40" rx="10" fill="#F6E9E2"/>
<path opacity="0.35" d="M12 29V11C12 10.448 12.448 10 13 10H25C26.657 10 28 11.343 28 13V27C28 28.657 26.657 30 25 30H13C12.448 30 12 29.552 12 29Z" fill="#FF7434"/>
<path d="M20 20C21.6569 20 23 18.6569 23 17C23 15.3431 21.6569 14 20 14C18.3431 14 17 15.3431 17 17C17 18.6569 18.3431 20 20 20Z" fill="#FF7434"/>
<path d="M23 22H17C15.895 22 15 22.895 15 24C15 25.105 15.895 26 17 26H23C24.105 26 25 25.105 25 24C25 22.895 24.105 22 23 22Z" fill="#FF7434"/>
<path d="M12 23C11.846 23 11.693 23 11.5 23C10.672 23 10 23.672 10 24.5C10 25.328 10.672 26 11.5 26C11.693 26 11.846 26 12 26V23Z" fill="#FF7434"/>
<path d="M12 14C11.846 14 11.693 14 11.5 14C10.672 14 10 14.672 10 15.5C10 16.328 10.672 17 11.5 17C11.693 17 11.846 17 12 17V14Z" fill="#FF7434"/>
</svg>
    