<svg width="40" height="40" viewBox="0 0 40 40" fill="none" xmlns="http://www.w3.org/2000/svg">
<rect width="40" height="40" rx="10" fill="#F6E9E2"/>
<path fill-rule="evenodd" clip-rule="evenodd" d="M28.25 18.0007H28V24.5651C28.5502 24.7187 29.0025 25.1364 29.1894 25.6973L29.5228 26.6973C29.9005 27.8305 29.0571 29.0007 27.8626 29.0007H12.1374C10.943 29.0007 10.0995 27.8305 10.4772 26.6973L10.8106 25.6973C10.9975 25.1364 11.4498 24.7187 12 24.5651V18.0007H11.75C10.7835 18.0007 10 17.2172 10 16.2507V15.789C10 15.1287 10.3716 14.5247 10.9609 14.227L19.2109 10.0591C19.7071 9.80842 20.2929 9.80842 20.7891 10.0591L29.0391 14.227C29.6284 14.5247 30 15.1287 30 15.789V16.2507C30 17.2172 29.2165 18.0007 28.25 18.0007ZM24 18.0007H26.5V24.5007H24V18.0007ZM16 24.5007H13.5V18.0007H16V24.5007ZM17.5 24.5007V18.0007H22.5V24.5007H17.5Z" fill="#FF7434"/>
<path d="M13.5 18H12V24.5625L13.5 24.5V18Z" fill="#F9BA97"/>
<path d="M24 18H22.5V24.5H24V18Z" fill="#F9BA97"/>
<path d="M17.5 18H16V24.5H17.5V18Z" fill="#F9BA97"/>
<path d="M28 18H26.5V24.5L28 24.5742V18Z" fill="#F9BA97"/>
</svg>
