<svg width="25" height="24" viewBox="0 0 25 24" fill="none" xmlns="http://www.w3.org/2000/svg">
<rect x="0.849976" y="0.5" width="23" height="23" rx="11.5" fill="white"/>
<rect x="0.849976" y="0.5" width="23" height="23" rx="11.5" stroke="#666D80"/>
<g clip-path="url(#clip0_8751_8785)">
<path d="M6.79456 9.98626C6.79456 9.79164 6.79456 9.69433 6.80268 9.61237C6.881 8.82184 7.50637 8.19647 8.2969 8.11815C8.37886 8.11003 8.48142 8.11003 8.68655 8.11003C8.76559 8.11003 8.80511 8.11003 8.83866 8.10799C9.26712 8.08205 9.64231 7.81162 9.80241 7.41336C9.81495 7.38217 9.82667 7.34701 9.85011 7.27669C9.87355 7.20637 9.88527 7.17122 9.89781 7.14003C10.0579 6.74176 10.4331 6.47134 10.8616 6.44539C10.8951 6.44336 10.9322 6.44336 11.0063 6.44336H13.6939C13.768 6.44336 13.8051 6.44336 13.8387 6.44539C14.2671 6.47134 14.6423 6.74176 14.8024 7.14003C14.815 7.17122 14.8267 7.20637 14.8501 7.27669C14.8736 7.34701 14.8853 7.38217 14.8978 7.41336C15.0579 7.81162 15.4331 8.08205 15.8616 8.10799C15.8951 8.11003 15.9346 8.11003 16.0137 8.11003C16.2188 8.11003 16.3214 8.11003 16.4033 8.11815C17.1939 8.19647 17.8192 8.82184 17.8975 9.61237C17.9057 9.69433 17.9057 9.79164 17.9057 9.98626V14.3322C17.9057 15.2657 17.9057 15.7324 17.724 16.0889C17.5642 16.4025 17.3093 16.6575 16.9957 16.8173C16.6391 16.9989 16.1724 16.9989 15.239 16.9989H9.46122C8.5278 16.9989 8.06109 16.9989 7.70457 16.8173C7.39097 16.6575 7.136 16.4025 6.97621 16.0889C6.79456 15.7324 6.79456 15.2657 6.79456 14.3322V9.98626Z" stroke="#666D80" stroke-linecap="round" stroke-linejoin="round"/>
<path d="M12.3501 14.4989C13.5774 14.4989 14.5723 13.504 14.5723 12.2767C14.5723 11.0494 13.5774 10.0545 12.3501 10.0545C11.1228 10.0545 10.1279 11.0494 10.1279 12.2767C10.1279 13.504 11.1228 14.4989 12.3501 14.4989Z" stroke="#666D80" stroke-linecap="round" stroke-linejoin="round"/>
</g>
<defs>
<clipPath id="clip0_8751_8785">
<rect width="13.3333" height="13.3333" fill="white" transform="translate(5.68347 5.33203)"/>
</clipPath>
</defs>
</svg>
