<svg width="40" height="40" viewBox="0 0 40 40" fill="none" xmlns="http://www.w3.org/2000/svg">
<rect width="40" height="40" rx="10" fill="#F6E9E2"/>
<path d="M29.7388 23.4136C29.5716 24.6839 28.9477 25.85 27.9837 26.6939C27.0196 27.5379 25.7813 28.0021 24.5 27.9998C17.0563 27.9998 11 21.9436 11 14.4998C10.9977 13.2185 11.4619 11.9802 12.3059 11.0161C13.1499 10.0521 14.3159 9.42822 15.5863 9.26106C15.9075 9.22184 16.2328 9.28756 16.5136 9.44841C16.7944 9.60926 17.0157 9.85662 17.1444 10.1536L19.1244 14.5739V14.5851C19.2229 14.8124 19.2636 15.0606 19.2428 15.3074C19.222 15.5543 19.1404 15.7922 19.0053 15.9998C18.9884 16.0251 18.9706 16.0486 18.9519 16.072L17 18.3857C17.7022 19.8126 19.1947 21.292 20.6403 21.9961L22.9222 20.0545C22.9446 20.0357 22.9681 20.0181 22.9925 20.002C23.2 19.8636 23.4387 19.7792 23.687 19.7562C23.9353 19.7333 24.1854 19.7727 24.4147 19.8707L24.4269 19.8764L28.8434 21.8554C29.1409 21.9837 29.3889 22.2047 29.5503 22.4856C29.7116 22.7664 29.7778 23.092 29.7388 23.4136Z" fill="#FF7434"/>
</svg>
