<svg width="40" height="40" viewBox="0 0 40 40" fill="none" xmlns="http://www.w3.org/2000/svg">
<rect width="40" height="40" rx="10" fill="#F6E9E2"/>
<path d="M25.9 12.1C25.6 12.1 25.3 12 25 12H17C15.3 12 14 13.3 14 15V27C14 27.3 14.1 27.6 14.1 27.9C12.9 27.5 12 26.4 12 25V13C12 11.3 13.3 10 15 10H23C24.4 10 25.5 10.9 25.9 12.1Z" fill="#FF7434"/>
<path opacity="0.35" d="M14 27L13 15C13 13.3 15.3 11 17 11L25 12C26.7 12 28 13.3 28 15V27C28 28.7 26.7 30 25 30H17C15.3 30 14 28.7 14 27Z" fill="#FF7434"/>
<path d="M24 18H18C17.4 18 17 17.6 17 17C17 16.4 17.4 16 18 16H24C24.6 16 25 16.4 25 17C25 17.6 24.6 18 24 18Z" fill="#FF7434"/>
<path d="M24 22H18C17.4 22 17 21.6 17 21C17 20.4 17.4 20 18 20H24C24.6 20 25 20.4 25 21C25 21.6 24.6 22 24 22Z" fill="#FF7434"/>
<path d="M24 26H18C17.4 26 17 25.6 17 25C17 24.4 17.4 24 18 24H24C24.6 24 25 24.4 25 25C25 25.6 24.6 26 24 26Z" fill="#FF7434"/>
</svg>
