<svg width="40" height="40" viewBox="0 0 40 40" fill="none" xmlns="http://www.w3.org/2000/svg">
<rect width="40" height="40" rx="10" fill="#F6E9E2"/>
<path d="M20 12C24.4184 12 28 15.5824 28 20C28 24.4176 24.4184 28 20 28C15.5816 28 12 24.4176 12 20C12 15.5824 15.5816 12 20 12ZM20 22.8C19.5582 22.8 19.2 23.1582 19.2 23.6C19.2 24.0418 19.5582 24.4 20 24.4C20.4418 24.4 20.8 24.0418 20.8 23.6C20.8 23.1582 20.4418 22.8 20 22.8ZM20 15.8C18.785 15.8 17.8 16.785 17.8 18C17.8 18.3314 18.0686 18.6 18.4 18.6C18.7038 18.6 18.9548 18.3743 18.9945 18.0814L19 18C19 17.4477 19.4477 17 20 17C20.5523 17 21 17.4477 21 18C21 18.4311 20.892 18.6442 20.4841 19.0658L20.3757 19.1757C19.6733 19.8782 19.4 20.3336 19.4 21.2C19.4 21.5314 19.6686 21.8 20 21.8C20.3314 21.8 20.6 21.5314 20.6 21.2C20.6 20.7689 20.708 20.5558 21.1159 20.1342L21.2243 20.0243C21.9267 19.3218 22.2 18.8664 22.2 18C22.2 16.785 21.215 15.8 20 15.8Z" fill="#FF7434"/>
</svg>
