<svg width="40" height="40" viewBox="0 0 40 40" fill="none" xmlns="http://www.w3.org/2000/svg">
<rect width="40" height="40" rx="10" fill="#F6E9E2"/>
<path opacity="0.35" d="M15.5 21C12.467 21 10 18.533 10 15.5C10 12.467 12.467 10 15.5 10C18.533 10 21 12.467 21 15.5C21 16.473 20.746 17.387 20.301 18.181L20.018 20.135L18.18 20.302C17.387 20.746 16.473 21 15.5 21ZM15.5 13C14.122 13 13 14.122 13 15.5C13 16.878 14.122 18 15.5 18C16.878 18 18 16.878 18 15.5C18 14.122 16.878 13 15.5 13Z" fill="#FF7434"/>
<path opacity="0.35" d="M27.62 27.4898C27.6 27.5198 27.58 27.5398 27.56 27.5598L24.56 30.5598C24.27 30.8498 23.88 30.9998 23.5 30.9998C23.12 30.9998 22.73 30.8498 22.44 30.5598C21.85 29.9798 21.85 29.0198 22.44 28.4398L25.44 25.4398C25.48 25.3998 25.52 25.3698 25.56 25.3398L27.62 27.4898Z" fill="#FF7434"/>
<path opacity="0.35" d="M23.7 23.3995C23.66 23.4595 23.61 23.5095 23.56 23.5595L19.56 27.5595C19.27 27.8495 18.88 27.9995 18.5 27.9995C18.12 27.9995 17.73 27.8495 17.44 27.5595C16.85 26.9795 16.85 26.0195 17.44 25.4395L21.44 21.4395C21.51 21.3695 21.58 21.3195 21.65 21.2695L23.7 23.3995Z" fill="#FF7434"/>
<path d="M29.56 29.5597C29.27 29.8497 28.88 29.9997 28.5 29.9997C28.12 29.9997 27.73 29.8497 27.44 29.5597L18.18 20.2997C19.07 19.7997 19.8 19.0697 20.3 18.1797L29.56 27.4397C30.15 28.0197 30.15 28.9797 29.56 29.5597Z" fill="#FF7434"/>
</svg>
