<svg width="40" height="40" viewBox="0 0 40 40" fill="none" xmlns="http://www.w3.org/2000/svg">
<rect width="40" height="40" rx="10" fill="#F6E9E2"/>
<path d="M20 9C19.448 9 19 9.448 19 10C19 10.197 19 13.803 19 14C19 14.552 19.448 15 20 15C20.552 15 21 14.552 21 14C21 13.803 21 10.197 21 10C21 9.448 20.552 9 20 9Z" fill="#FF7434"/>
<path d="M23.707 10.2929C23.316 9.90188 22.683 9.90288 22.293 10.2929C22.154 10.4329 19.604 12.9819 19.465 13.1209C19.075 13.5109 19.075 14.1449 19.465 14.5349C19.856 14.9259 20.489 14.9259 20.879 14.5349C21.018 14.3959 23.568 11.8459 23.707 11.7069C24.098 11.3169 24.098 10.6829 23.707 10.2929Z" fill="#FF7434"/>
<path d="M20.536 14.5352C20.145 14.9262 19.512 14.9252 19.122 14.5352C18.983 14.3952 16.433 11.8463 16.294 11.7072C15.904 11.3173 15.904 10.6832 16.294 10.2932C16.685 9.90225 17.318 9.90225 17.708 10.2932C17.847 10.4322 20.397 12.9823 20.536 13.1213C20.926 13.5113 20.926 14.1442 20.536 14.5352Z" fill="#FF7434"/>
<path d="M14 13H26C27.657 13 29 14.343 29 16V17H11V16C11 14.343 12.343 13 14 13Z" fill="#FF7434"/>
<path opacity="0.35" d="M14 29H26C27.657 29 29 27.657 29 26V17H11V26C11 27.657 12.343 29 14 29Z" fill="#FF7434"/>
<path d="M21 17H19V29H21V17Z" fill="#FF7434"/>
</svg>
