<svg width="40" height="40" viewBox="0 0 40 40" fill="none" xmlns="http://www.w3.org/2000/svg">
<rect width="40" height="40" rx="10" fill="#F6E9E2"/>
<path opacity="0.35" d="M26 29H14C12.343 29 11 27.657 11 26V14H26C27.657 14 29 15.343 29 17V26C29 27.657 27.657 29 26 29Z" fill="#FF7434"/>
<path d="M25.5 23C26.3284 23 27 22.3284 27 21.5C27 20.6716 26.3284 20 25.5 20C24.6716 20 24 20.6716 24 21.5C24 22.3284 24.6716 23 25.5 23Z" fill="#FF7434"/>
<path d="M11 14C11 12.343 12.343 11 14 11H23C24.657 11 26 12.343 26 14H11Z" fill="#FF7434"/>
</svg>
